<svg width="782" height="464" viewBox="0 0 782 464" fill="none" xmlns="http://www.w3.org/2000/svg">
<path d="M279.862 81.1241L279.862 81.1241L279.864 81.1225C284.357 77.5285 290.78 75.6968 299.202 75.6968C307.814 75.6968 314.23 77.5306 318.533 81.1162L318.541 81.1234L318.55 81.1302C323.016 84.5238 325.272 89.5289 325.272 96.231C325.272 102.932 323.016 108.036 318.541 111.615C314.238 115.022 307.818 116.765 299.202 116.765C290.781 116.765 284.357 115.026 279.863 111.615C275.573 108.036 273.41 103.023 273.41 96.5078C273.41 89.6086 275.583 84.5124 279.862 81.1241ZM392.01 180.651L392.016 181.145H392.509H398.045H398.442L398.532 180.758C400.921 170.465 404.317 161.849 408.708 154.896C413.091 147.955 418.651 142.856 425.387 139.579L425.387 139.579L425.396 139.574C432.14 136.112 440.084 134.371 449.246 134.371C466.275 134.371 479.121 140.313 487.868 152.158L487.871 152.162C496.814 164.025 501.332 182.987 501.332 209.151V283.378H457.496V214.133C457.496 198.982 455.284 187.885 450.777 180.933C446.439 173.77 439.909 170.181 431.257 170.181C424.136 170.181 418.198 172.34 413.482 176.679L413.474 176.686C408.975 180.998 405.614 186.703 403.38 193.779C401.148 200.847 400.036 208.74 400.036 217.454V283.378H356.476V195.867V138.246H391.462L392.01 180.651ZM562.417 156.905C555.466 155.624 549.73 153.343 545.192 150.078C540.825 146.618 537.653 142.625 535.661 138.098C533.661 133.553 532.659 128.64 532.659 123.354C532.659 115.327 534.755 108.516 538.927 102.895L538.931 102.888C543.112 97.0717 549.027 92.6052 556.702 89.4985C564.38 86.3909 573.355 84.8301 583.638 84.8301C592.638 84.8301 600.8 85.9322 608.126 88.1303L608.137 88.1334C615.356 90.1185 621.126 92.628 625.467 95.6491L623.047 134.632C618.571 131.687 613.515 129.247 607.882 127.31C602.12 125.266 596.713 124.238 591.664 124.238C586.407 124.238 581.959 125.647 578.353 128.492C574.678 131.204 572.897 135.721 572.897 141.897C572.897 146.753 573.923 150.488 576.06 153.014L576.067 153.022L576.074 153.03C578.35 155.496 581.104 157.205 584.327 158.153L584.34 158.157L584.354 158.16C587.527 158.906 590.702 159.28 593.878 159.28H644.606C642.575 161.875 640.713 164.671 639.022 167.667C634.878 174.891 632.706 183.301 631.672 192.876H588.343H587.843V193.376V283.378H545.391V193.376V192.876H544.891H522.973V161.515L562.306 163.154L562.827 163.176V162.655V157.396V156.98L562.417 156.905ZM639.893 168.159C641.132 165.965 642.462 163.88 643.885 161.905L633.103 189.492C634.254 181.457 636.339 174.352 639.891 168.162L639.893 168.159ZM632.612 193.494L646.081 159.035C651.649 152.177 658.462 146.801 666.521 142.901L666.527 142.898C677.887 137.218 690.909 134.371 705.604 134.371C720.299 134.371 733.321 137.218 744.681 142.898C756.03 148.572 764.906 157.08 771.316 168.436L771.318 168.439C777.72 179.598 780.938 193.713 780.938 210.812C780.938 228.28 777.628 242.671 771.042 254.013C764.449 265.367 755.392 273.783 743.863 279.274C732.498 284.59 719.656 287.253 705.328 287.253C690.633 287.253 677.611 284.406 666.251 278.727C655.089 273.053 646.304 264.545 639.893 253.188C633.502 241.868 631.859 227.68 631.859 210.535C631.859 204.475 632.065 198.796 632.612 193.494ZM723.595 251.359L723.6 251.355L723.606 251.351C728.136 248.142 731.512 243.343 733.752 236.994C735.991 230.651 737.102 222.842 737.102 213.58C737.102 203.765 735.899 195.494 733.476 188.781C731.052 181.884 727.405 176.628 722.514 173.051C717.793 169.279 711.681 167.413 704.22 167.413C697.86 167.413 692.317 169.005 687.612 172.204C683.074 175.23 679.697 179.942 677.456 186.29C675.217 192.634 674.107 200.537 674.107 209.982C674.107 225.158 676.88 236.63 682.506 244.319L682.511 244.326C688.332 252.025 696.419 255.871 706.711 255.871C713.428 255.871 719.066 254.378 723.595 251.359ZM277.284 283.378V138.246H320.844V283.378H277.284Z" fill="#2D353C" stroke="#2D373C"/>
<path d="M496.414 200.849H459.511L457.274 283.699C457.274 365.191 587.575 365.191 587.575 283.699L585.594 200.849H547.154C545.616 266.965 547.108 229.545 545.466 283.699C544.346 320.601 505.585 319.063 500.973 283.699L496.414 200.849Z" fill="#2D353C" stroke="#2D373C"/>
<path d="M166.001 258.3C166.001 262.1 165.101 264.9 163.301 266.7C161.701 268.3 159.001 269.1 155.201 269.1H118.001C114.201 269.1 111.401 268.3 109.601 266.7C108.001 264.9 107.201 262.1 107.201 258.3V207.9H58.3013C54.5013 207.9 51.7013 207.1 49.9013 205.5C48.3013 203.7 47.5013 200.9 47.5013 197.1V162.9C47.5013 159.1 48.3013 156.4 49.9013 154.8C51.7013 153 54.5013 152.1 58.3013 152.1H107.201V101.7C107.201 97.9 108.001 95.2 109.601 93.6C111.401 91.8 114.201 90.9 118.001 90.9H155.201C159.001 90.9 161.701 91.8 163.301 93.6C165.101 95.2 166.001 97.9 166.001 101.7V152.1H214.901C218.701 152.1 221.401 153 223.001 154.8C224.801 156.4 225.701 159.1 225.701 162.9V197.1C225.701 200.9 224.801 203.7 223.001 205.5C221.401 207.1 218.701 207.9 214.901 207.9H166.001V258.3Z" fill="#DD8114"/>
</svg>
