<svg width="265" height="158" viewBox="0 0 265 158" fill="none" xmlns="http://www.w3.org/2000/svg">
<path d="M206.423 109.624L213.89 48.7428H240.11L247.445 109.624H232.819L231.721 99.8H222.41L221.444 109.624H206.423ZM222.41 99.8H231.721L227.154 59.1203H226.451L222.41 99.8Z" fill="white"/>
<path d="M245.24 48.0054C249.236 59.3486 243.787 73.4939 229.882 87.4773C216.119 101.318 194.709 114.27 168.88 122.879C143.051 131.489 117.975 134.033 98.3773 131.313C78.5785 128.564 65.3559 120.642 61.3601 109.299C57.3642 97.956 62.8134 83.8108 76.7181 69.8274C90.4815 55.9862 111.892 43.035 137.721 34.4252C163.549 25.8155 188.626 23.2713 208.223 25.9921C228.022 28.7409 241.245 36.6622 245.24 48.0054Z" stroke="url(#paint0_linear_290_2153)" stroke-width="6"/>
<path d="M18.6222 109.671C13.0297 109.671 8.52054 108.299 5.09474 105.555C1.69825 102.811 0 98.971 0 94.036V65.9475C0 60.0438 1.47865 55.5239 4.43595 52.3876C7.42251 49.2513 12.2684 47.6831 18.9736 47.6831C22.6336 47.6831 25.8837 48.2135 28.7239 49.2743C31.5934 50.3351 33.8479 51.9263 35.4876 54.048C37.1273 56.1465 37.9472 58.7985 37.9472 62.004L22.575 72.5199V63.5261C22.575 61.7042 22.2823 60.482 21.6966 59.8594C21.111 59.2136 20.2033 58.8908 18.9736 58.8908C17.5389 58.8908 16.5726 59.3059 16.0748 60.1361C15.5771 60.9432 15.3282 62.0271 15.3282 63.3877V93.8628C15.3282 95.5465 15.6356 96.734 16.2505 97.4259C16.8947 98.1178 17.8024 98.4637 18.9736 98.4637C20.2912 98.4637 21.2135 98.0371 21.7406 97.1838C22.2969 96.3305 22.575 95.2234 22.575 93.8628V82.8974L38.1228 94.4162C38.1228 99.7665 36.41 103.652 32.9842 106.074C29.5584 108.472 24.771 109.671 18.6222 109.671ZM61.7519 109.671C55.5739 109.671 50.8451 108.207 47.5657 105.278C44.3156 102.326 42.6906 98.0717 42.6906 92.5136V63.5952C42.6906 58.3834 44.301 54.4285 47.5218 51.7303C50.7721 49.0322 55.5154 47.6831 61.7519 47.6831C67.9888 47.6831 72.7176 49.0322 75.9383 51.7303C79.1884 54.4285 80.8135 58.3834 80.8135 63.5952V92.5136C80.8135 98.0717 79.174 102.326 75.8943 105.278C72.6442 108.207 67.9303 109.671 61.7519 109.671ZM61.8838 98.4637C64.2259 98.4637 65.3973 96.6765 65.3973 93.102V63.3877C65.3973 60.3898 64.2554 58.8908 61.9717 58.8908C59.3947 58.8908 58.1064 60.4244 58.1064 63.4915V93.1709C58.1064 95.062 58.3993 96.4226 58.9849 97.2531C59.5706 98.0599 60.537 98.4637 61.8838 98.4637ZM87.05 109.118V48.2366H108.307C113.871 48.2366 118.058 49.4588 120.869 51.9033C123.68 54.3247 125.085 57.8761 125.085 62.5575V91.061C125.085 96.8264 123.797 101.277 121.22 104.413C118.672 107.55 114.193 109.118 107.781 109.118H87.05ZM102.598 98.3598H105.277C108.117 98.3598 109.537 97.2759 109.537 95.1081V63.699C109.537 61.6697 109.186 60.3667 108.483 59.7902C107.81 59.1906 106.419 58.8908 104.311 58.8908H102.598V98.3598ZM129.301 109.118L136.768 48.2366H162.988L170.323 109.118H155.697L154.6 99.2938H145.288L144.322 109.118H129.301ZM145.288 99.2938H154.6L150.032 58.6141H149.329L145.288 99.2938ZM180.556 109.118V59.9285H171.377V48.2366H205.196V59.9285H196.016V109.118H180.556Z" fill="white"/>
<defs>
<linearGradient id="paint0_linear_290_2153" x1="207.22" y1="-7.45036" x2="110.222" y2="148.388" gradientUnits="userSpaceOnUse">
<stop offset="0.0605174" stop-color="white"/>
<stop offset="0.514916" stop-color="#B9B9B9"/>
<stop offset="0.722928" stop-color="white"/>
<stop offset="1" stop-color="#939393"/>
</linearGradient>
</defs>
</svg>
