<?xml version="1.0" encoding="UTF-8"?>
<!DOCTYPE svg PUBLIC "-//W3C//DTD SVG 1.1//EN" "http://www.w3.org/Graphics/SVG/1.1/DTD/svg11.dtd">
<svg xmlns="http://www.w3.org/2000/svg" version="1.1" width="2235px" height="1158px" style="shape-rendering:geometricPrecision; text-rendering:geometricPrecision; image-rendering:optimizeQuality; fill-rule:evenodd; clip-rule:evenodd" xmlns:xlink="http://www.w3.org/1999/xlink">
<g><path style="opacity:0.974" fill="#119ed9" d="M 539.5,-0.5 C 552.167,-0.5 564.833,-0.5 577.5,-0.5C 631.784,4.8106 677.784,26.9773 715.5,66C 706.992,74.8419 698.158,83.3419 689,91.5C 649.169,51.6618 601.002,32.8284 544.5,35C 485.379,42.4418 443.213,72.9418 418,126.5C 396.29,192.843 412.124,248.343 465.5,293C 513.733,326.652 565.733,333.986 621.5,315C 663.849,296.815 688.849,264.981 696.5,219.5C 660.167,219.5 623.833,219.5 587.5,219.5C 587.5,208.167 587.5,196.833 587.5,185.5C 637.167,185.5 686.833,185.5 736.5,185.5C 737.317,227.602 725.483,265.602 701,299.5C 671.211,334.98 633.044,354.48 586.5,358C 539.861,363.063 496.194,354.063 455.5,331C 389.754,286.324 362.587,224.49 374,145.5C 387.491,82.6839 423.657,38.5172 482.5,13C 501.078,6.10379 520.078,1.60379 539.5,-0.5 Z"/></g>
<g><path style="opacity:0.973" fill="#119ed9" d="M -0.5,350.5 C -0.5,349.5 -0.5,348.5 -0.5,347.5C 53.5363,234.591 107.203,121.424 160.5,8C 163.5,7.33333 166.5,7.33333 169.5,8C 223.107,121.88 276.44,235.88 329.5,350C 316.591,350.822 303.758,350.655 291,349.5C 272.937,312.709 255.437,275.709 238.5,238.5C 189.167,238.5 139.833,238.5 90.5,238.5C 73.4573,275.588 56.124,312.588 38.5,349.5C 25.5171,350.499 12.5171,350.832 -0.5,350.5 Z M 164.5,82.5 C 184.203,122.742 203.536,163.242 222.5,204C 184.167,204.667 145.833,204.667 107.5,204C 126.64,163.554 145.64,123.054 164.5,82.5 Z"/></g>
<g><path style="opacity:0.977" fill="#119ed9" d="M 804.5,7.5 C 870.167,7.5 935.833,7.5 1001.5,7.5C 1001.5,19.1667 1001.5,30.8333 1001.5,42.5C 947.5,42.5 893.5,42.5 839.5,42.5C 839.5,77.8333 839.5,113.167 839.5,148.5C 892.833,148.5 946.167,148.5 999.5,148.5C 999.5,159.833 999.5,171.167 999.5,182.5C 946.167,182.5 892.833,182.5 839.5,182.5C 839.5,226.833 839.5,271.167 839.5,315.5C 892.833,315.5 946.167,315.5 999.5,315.5C 999.5,327.167 999.5,338.833 999.5,350.5C 934.5,350.5 869.5,350.5 804.5,350.5C 804.5,236.167 804.5,121.833 804.5,7.5 Z"/></g>
<g><path style="opacity:0.966" fill="#119ed9" d="M 1063.5,7.5 C 1066.52,7.33537 1069.52,7.50204 1072.5,8C 1147.67,94.5 1222.83,181 1298,267.5C 1298.5,180.834 1298.67,94.1673 1298.5,7.5C 1310.17,7.5 1321.83,7.5 1333.5,7.5C 1333.5,121.833 1333.5,236.167 1333.5,350.5C 1327.83,351.722 1323.33,350.055 1320,345.5C 1247,261.5 1174,177.5 1101,93.5C 1100.5,179.166 1100.33,264.833 1100.5,350.5C 1088.17,350.5 1075.83,350.5 1063.5,350.5C 1063.5,236.167 1063.5,121.833 1063.5,7.5 Z"/></g>
<g><path style="opacity:0.973" fill="#119ed9" d="M 1419.5,7.5 C 1448.84,7.33335 1478.17,7.50002 1507.5,8C 1534.78,7.97181 1561.78,10.6385 1588.5,16C 1653.4,34.5704 1692.23,77.0704 1705,143.5C 1713.26,188.088 1707.59,230.755 1688,271.5C 1660.8,320.538 1618.97,346.372 1562.5,349C 1514.85,350.422 1467.18,350.922 1419.5,350.5C 1419.5,236.167 1419.5,121.833 1419.5,7.5 Z M 1453.5,42.5 C 1488.62,41.5017 1523.62,43.0017 1558.5,47C 1619.66,56.8279 1656.83,91.9945 1670,152.5C 1677.05,189.776 1671.71,225.11 1654,258.5C 1632.3,291.944 1601.47,310.444 1561.5,314C 1525.56,316.88 1489.56,318.047 1453.5,317.5C 1453.5,225.833 1453.5,134.167 1453.5,42.5 Z"/></g>
<g><path style="opacity:0.973" fill="#119ed9" d="M 1908.5,7.5 C 1911.9,7.17964 1915.23,7.51298 1918.5,8.5C 1972.06,122.292 2025.06,236.292 2077.5,350.5C 2064.82,350.832 2052.15,350.499 2039.5,349.5C 2021.69,312.712 2004.02,275.879 1986.5,239C 1937.5,238.167 1888.5,238.333 1839.5,239.5C 1821.73,276.045 1804.23,312.712 1787,349.5C 1773.9,350.822 1760.73,350.822 1747.5,349.5C 1801.73,235.709 1855.4,121.709 1908.5,7.5 Z M 1912.5,83.5 C 1915.36,86.1899 1917.53,89.5233 1919,93.5C 1935.89,130.287 1953.06,166.954 1970.5,203.5C 1932.5,204.833 1894.5,204.833 1856.5,203.5C 1875.18,163.478 1893.84,123.478 1912.5,83.5 Z"/></g>
<g><path style="opacity:0.991" fill="#119ed9" d="M -0.5,526.5 C 159.167,526.5 318.833,526.5 478.5,526.5C 478.5,686.5 478.5,846.5 478.5,1006.5C 318.833,1006.5 159.167,1006.5 -0.5,1006.5C -0.5,846.5 -0.5,686.5 -0.5,526.5 Z M 233.5,596.5 C 266.122,594.642 294.789,604.142 319.5,625C 347.873,656.67 356.373,693.17 345,734.5C 339.859,751.121 331.859,766.121 321,779.5C 293.97,806.197 266.637,832.531 239,858.5C 238.51,859.793 238.343,861.127 238.5,862.5C 274.833,862.5 311.167,862.5 347.5,862.5C 347.5,887.167 347.5,911.833 347.5,936.5C 274.167,936.5 200.833,936.5 127.5,936.5C 127.333,909.831 127.5,883.165 128,856.5C 172.357,814.476 216.357,772.142 260,729.5C 271.052,715.094 272.719,699.76 265,683.5C 254.893,672.245 242.393,668.411 227.5,672C 212.011,678.117 205.011,689.617 206.5,706.5C 180.167,706.5 153.833,706.5 127.5,706.5C 128.652,652.215 154.985,617.048 206.5,601C 215.574,599.043 224.574,597.543 233.5,596.5 Z"/></g>
<g><path style="opacity:0.989" fill="#119ed9" d="M 532.5,526.5 C 692.167,526.5 851.833,526.5 1011.5,526.5C 1011.5,686.5 1011.5,846.5 1011.5,1006.5C 851.833,1006.5 692.167,1006.5 532.5,1006.5C 532.5,846.5 532.5,686.5 532.5,526.5 Z M 763.5,594.5 C 826.316,593.352 876.483,617.685 914,667.5C 949.551,722.106 954.551,779.439 929,839.5C 895.993,902.267 843.826,935.267 772.5,938.5C 699.232,935.144 646.399,900.81 614,835.5C 588.141,769.839 597.141,709.506 641,654.5C 674.038,618.564 714.872,598.564 763.5,594.5 Z"/></g>
<g><path style="opacity:0.991" fill="#119ed9" d="M 1066.5,526.5 C 1226.17,526.5 1385.83,526.5 1545.5,526.5C 1545.5,686.5 1545.5,846.5 1545.5,1006.5C 1385.83,1006.5 1226.17,1006.5 1066.5,1006.5C 1066.5,846.5 1066.5,686.5 1066.5,526.5 Z M 1215.5,595.5 C 1283.17,595.167 1350.84,595.5 1418.5,596.5C 1395.87,634.964 1373.03,673.297 1350,711.5C 1348.87,713.345 1348.37,715.345 1348.5,717.5C 1379.1,726.258 1400.93,745.258 1414,774.5C 1432.51,825.607 1422.35,870.107 1383.5,908C 1341.53,941.059 1296.53,945.726 1248.5,922C 1210.12,898.756 1190.12,864.589 1188.5,819.5C 1215.17,819.5 1241.83,819.5 1268.5,819.5C 1268.06,852.229 1284.06,866.396 1316.5,862C 1328.3,859.537 1336.47,852.703 1341,841.5C 1345.06,829.596 1345.39,817.596 1342,805.5C 1334.97,790.049 1322.81,782.216 1305.5,782C 1280.16,781.833 1254.83,781.333 1229.5,780.5C 1250.5,743.833 1271.5,707.167 1292.5,670.5C 1266.84,669.5 1241.18,669.167 1215.5,669.5C 1215.5,644.833 1215.5,620.167 1215.5,595.5 Z"/></g>
<g><path style="opacity:0.986" fill="#119ed9" d="M 1599.5,526.5 C 1759.5,526.5 1919.5,526.5 2079.5,526.5C 2079.5,686.5 2079.5,846.5 2079.5,1006.5C 1919.5,1006.5 1759.5,1006.5 1599.5,1006.5C 1599.5,846.5 1599.5,686.5 1599.5,526.5 Z M 1830.5,594.5 C 1891.83,593.255 1941.33,616.588 1979,664.5C 2016.07,718.86 2022.07,776.527 1997,837.5C 1970.33,891.822 1927.16,924.655 1867.5,936C 1798.07,944.349 1741.9,921.183 1699,866.5C 1665.25,817.26 1657.92,764.26 1677,707.5C 1700.15,650.332 1741.65,614.166 1801.5,599C 1811.23,596.968 1820.9,595.468 1830.5,594.5 Z"/></g>
<g><path style="opacity:0.989" fill="#119ed9" d="M 2234.5,658.5 C 2234.5,824.833 2234.5,991.167 2234.5,1157.5C 2068.5,1157.5 1902.5,1157.5 1736.5,1157.5C 1698.85,1120.19 1661.19,1082.85 1623.5,1045.5C 1789.17,1044.5 1954.83,1044.17 2120.5,1044.5C 2120.33,877.833 2120.5,711.166 2121,544.5C 2159.06,582.395 2196.9,620.395 2234.5,658.5 Z"/></g>
<g><path style="opacity:0.99" fill="#119ed9" d="M 760.5,668.5 C 811.734,665.843 845.901,688.51 863,736.5C 872.14,771.683 865.806,803.683 844,832.5C 812.9,864.256 776.4,872.422 734.5,857C 702.997,841.531 684.497,816.365 679,781.5C 674.044,738.598 689.21,705.098 724.5,681C 735.898,674.702 747.898,670.536 760.5,668.5 Z"/></g>
<g><path style="opacity:0.99" fill="#119ed9" d="M 1827.5,668.5 C 1876.81,665.697 1910.64,687.03 1929,732.5C 1941.54,775.199 1932.04,812.033 1900.5,843C 1870.19,866.044 1837.19,870.711 1801.5,857C 1769.58,841.393 1751.08,815.893 1746,780.5C 1741.27,739.478 1755.44,706.978 1788.5,683C 1800.61,675.468 1813.61,670.635 1827.5,668.5 Z"/></g>
</svg>
