<?xml version="1.0" standalone="no"?>
<!DOCTYPE svg PUBLIC "-//W3C//DTD SVG 20010904//EN"
 "http://www.w3.org/TR/2001/REC-SVG-20010904/DTD/svg10.dtd">
<svg version="1.0" xmlns="http://www.w3.org/2000/svg"
 width="1689.000000pt" height="581.000000pt" viewBox="0 0 1689.000000 581.000000"
 preserveAspectRatio="xMidYMid meet">

<g transform="translate(0.000000,581.000000) scale(0.100000,-0.100000)"
fill="#000000" stroke="none">
<path d="M1773 5793 c-16 -3 -23 -12 -23 -28 0 -46 9 -55 59 -55 l47 0 -5 43
c-5 36 -9 42 -31 43 -14 1 -35 0 -47 -3z"/>
<path d="M1997 5794 c-4 -4 -7 -22 -7 -41 l0 -33 61 0 60 0 -3 38 -3 37 -50 3
c-28 2 -54 0 -58 -4z"/>
<path d="M2250 5762 c0 -44 10 -52 65 -52 29 0 34 4 40 31 9 39 -2 50 -59 56
l-46 6 0 -41z"/>
<path d="M1450 5761 c-21 -6 -26 -14 -28 -50 -3 -41 -2 -43 20 -37 13 3 36 6
51 6 27 0 28 2 25 43 -3 45 -16 53 -68 38z"/>
<path d="M2560 5722 c0 -38 1 -40 41 -46 23 -4 44 -4 47 -2 2 3 5 22 6 43 l1
38 -47 3 -48 3 0 -39z"/>
<path d="M1222 5719 c-57 -11 -59 -12 -54 -53 5 -41 1 -40 74 -25 l56 11 -9
31 c-12 42 -18 45 -67 36z"/>
<path d="M2796 5705 c-18 -48 -9 -58 70 -70 41 -6 42 -6 47 27 3 18 2 36 -2
40 -3 4 -29 10 -57 13 -43 6 -52 4 -58 -10z"/>
<path d="M1895 5693 c-114 -4 -118 -5 -104 -37 l12 -25 236 -3 236 -3 27 30
27 30 -72 6 c-74 7 -206 7 -362 2z"/>
<path d="M964 5666 c-41 -18 -47 -29 -33 -60 14 -29 18 -30 72 -15 36 10 38
12 31 42 -11 54 -16 56 -70 33z"/>
<path d="M3055 5668 c-3 -8 -7 -27 -8 -42 -2 -25 3 -30 41 -41 42 -13 43 -13
58 18 16 29 16 32 -6 49 -12 10 -28 18 -35 18 -7 0 -20 3 -29 6 -9 3 -18 0
-21 -8z"/>
<path d="M1365 5640 c-110 -17 -284 -52 -360 -72 l-40 -10 33 -28 c33 -27 35
-27 79 -14 68 21 270 62 341 70 56 6 65 10 77 35 25 46 32 45 -130 19z"/>
<path d="M2570 5656 c0 -2 5 -16 10 -33 10 -29 13 -30 123 -46 62 -9 165 -30
230 -46 l118 -28 27 20 c15 11 29 22 31 24 10 8 -15 15 -140 43 -144 32 -399
74 -399 66z"/>
<path d="M693 5603 c-26 -5 -31 -39 -10 -66 10 -14 18 -14 55 -4 40 10 43 14
40 42 -3 26 -7 30 -33 31 -16 1 -40 0 -52 -3z"/>
<path d="M1833 5603 c-7 -2 -13 -18 -13 -34 l0 -29 65 0 65 0 0 35 0 35 -52
-1 c-29 0 -59 -3 -65 -6z"/>
<path d="M1970 5575 l0 -35 74 0 74 0 4 35 4 35 -78 0 -78 0 0 -35z"/>
<path d="M2150 5598 c0 -7 -3 -23 -6 -35 -5 -20 -2 -21 55 -25 l61 -3 0 31 c0
27 -4 32 -31 38 -49 10 -79 7 -79 -6z"/>
<path d="M3306 5595 c-15 -39 -7 -54 36 -66 37 -9 44 -9 55 7 14 20 17 50 6
57 -5 3 -27 8 -49 12 -33 5 -43 3 -48 -10z"/>
<path d="M1393 5563 c-34 -4 -37 -11 -27 -50 6 -20 11 -22 48 -17 83 11 83 11
78 44 -5 32 -12 34 -99 23z"/>
<path d="M2590 5536 c0 -31 3 -36 23 -36 12 0 39 -3 59 -6 34 -6 38 -4 44 21
9 35 0 41 -68 50 l-58 6 0 -35z"/>
<path d="M1305 5545 c-5 -2 -35 -9 -66 -15 -52 -10 -56 -13 -51 -36 2 -13 9
-27 14 -30 5 -3 40 0 79 7 53 9 69 16 64 26 -3 8 -5 23 -5 34 0 18 -11 22 -35
14z"/>
<path d="M2740 5530 c0 -10 -2 -24 -5 -32 -4 -10 15 -18 70 -29 l75 -15 8 30
c8 30 7 31 -32 42 -23 6 -58 13 -78 17 -33 5 -38 3 -38 -13z"/>
<path d="M492 5524 c-25 -17 -28 -42 -9 -68 12 -17 15 -17 50 0 41 20 42 22
25 59 -13 29 -34 32 -66 9z"/>
<path d="M3526 5518 c-24 -34 -20 -46 23 -67 l38 -20 12 25 c20 44 16 51 -51
81 -4 2 -14 -7 -22 -19z"/>
<path d="M675 5490 c-104 -39 -155 -61 -155 -70 0 -3 13 -16 28 -27 l29 -21
101 36 102 37 0 38 c0 23 -5 37 -12 37 -7 -1 -49 -14 -93 -30z"/>
<path d="M1823 5513 c-7 -2 -13 -19 -13 -37 0 -31 1 -31 40 -28 38 4 40 6 40
38 0 31 -3 34 -27 33 -16 0 -34 -3 -40 -6z"/>
<path d="M1910 5485 l0 -35 60 0 60 0 0 35 0 35 -60 0 -60 0 0 -35z"/>
<path d="M2056 5494 c-10 -37 3 -46 65 -42 53 3 54 4 57 36 l3 32 -59 0 c-56
0 -60 -2 -66 -26z"/>
<path d="M2200 5487 c0 -28 5 -36 23 -41 38 -10 47 -7 47 17 0 31 -11 44 -43
52 -26 7 -27 5 -27 -28z"/>
<path d="M3302 5478 l3 -41 99 -34 c98 -34 100 -34 124 -16 14 10 25 23 25 28
-1 10 -155 76 -219 94 l-35 10 3 -41z"/>
<path d="M1088 5498 c-34 -9 -37 -12 -32 -36 9 -37 13 -42 27 -37 7 2 31 9 54
15 39 10 41 12 34 38 -8 31 -27 35 -83 20z"/>
<path d="M2912 5480 c-9 -23 -8 -32 1 -35 31 -10 99 -26 102 -23 1 2 5 17 8
34 5 29 3 32 -22 37 -16 3 -40 9 -54 12 -21 6 -26 2 -35 -25z"/>
<path d="M1440 5445 c0 -32 3 -35 28 -35 41 0 54 13 46 43 -5 23 -12 27 -40
27 -32 0 -34 -2 -34 -35z"/>
<path d="M2566 5455 c-9 -35 -1 -45 38 -45 30 0 34 4 38 30 6 37 3 40 -38 40
-26 0 -33 -5 -38 -25z"/>
<path d="M1337 5460 c-46 -9 -46 -9 -40 -44 6 -28 6 -28 61 -22 31 4 58 8 60
11 2 2 1 17 -3 34 -7 33 -12 34 -78 21z"/>
<path d="M2666 5454 c-16 -41 -7 -50 52 -61 31 -6 58 -10 58 -9 1 0 5 15 8 33
7 31 7 31 -44 42 -65 14 -67 14 -74 -5z"/>
<path d="M1245 5442 c-52 -9 -95 -24 -95 -32 0 -5 4 -20 9 -34 10 -24 10 -24
61 -11 29 8 54 16 57 18 2 3 1 18 -4 34 -6 21 -13 28 -28 25z"/>
<path d="M2806 5414 c-4 -15 -3 -30 1 -34 7 -7 106 -31 109 -27 1 1 5 16 8 33
7 30 6 32 -38 43 -64 16 -73 14 -80 -15z"/>
<path d="M1828 5423 c-23 -4 -28 -9 -28 -34 0 -32 5 -34 98 -23 49 6 52 8 52
35 0 28 -2 29 -47 28 -27 -1 -60 -4 -75 -6z"/>
<path d="M1970 5400 l0 -30 75 0 c41 0 75 3 75 8 0 4 3 17 6 30 6 21 4 22 -75
22 l-81 0 0 -30z"/>
<path d="M2150 5402 c0 -26 4 -30 38 -36 74 -12 92 -8 92 18 0 31 -2 32 -72
40 l-58 7 0 -29z"/>
<path d="M720 5400 c-39 -16 -45 -22 -43 -45 1 -15 4 -30 7 -32 5 -6 93 22
115 36 12 8 13 14 3 35 -14 30 -22 31 -82 6z"/>
<path d="M1584 5412 c-31 -3 -32 -4 -21 -38 9 -28 15 -34 39 -34 24 0 28 4 28
28 0 38 -10 47 -46 44z"/>
<path d="M1724 5398 c3 -13 6 -28 6 -34 0 -7 11 -9 25 -6 20 3 25 10 25 33 0
26 -3 29 -31 29 -28 0 -31 -3 -25 -22z"/>
<path d="M3280 5394 c-15 -38 -15 -37 51 -60 l60 -22 10 25 c14 38 13 40 -51
62 l-61 20 -9 -25z"/>
<path d="M1088 5403 c-13 -3 -18 -15 -18 -40 0 -34 1 -34 33 -28 41 9 40 8 32
44 -6 30 -12 33 -47 24z"/>
<path d="M2300 5385 c0 -17 7 -28 23 -34 29 -11 37 -6 37 30 0 26 -3 29 -30
29 -25 0 -30 -4 -30 -25z"/>
<path d="M2945 5379 c-8 -36 -9 -35 33 -44 31 -6 32 -6 32 28 0 27 -5 36 -22
41 -35 9 -36 8 -43 -25z"/>
<path d="M1463 5387 c-61 -9 -63 -10 -63 -39 l0 -30 58 6 c86 11 94 14 86 39
-9 33 -14 34 -81 24z"/>
<path d="M2467 5393 c-4 -3 -7 -19 -7 -35 0 -23 4 -28 25 -28 14 0 25 6 25 13
0 6 3 22 6 35 5 18 2 22 -18 22 -14 0 -28 -3 -31 -7z"/>
<path d="M2537 5364 c-3 -16 -5 -30 -4 -30 1 -1 34 -5 73 -9 l71 -7 6 29 c3
15 4 29 2 31 -1 2 -34 6 -72 9 l-70 6 -6 -29z"/>
<path d="M608 5360 c-14 -9 -15 -15 -6 -40 8 -25 14 -29 32 -24 29 9 29 9 21
43 -7 32 -18 37 -47 21z"/>
<path d="M1283 5356 c-62 -13 -66 -17 -58 -48 l6 -25 75 15 c73 15 81 21 68
56 -7 18 -18 18 -91 2z"/>
<path d="M2706 5354 c-13 -35 -6 -43 52 -54 31 -6 64 -13 73 -16 12 -3 19 4
23 22 4 14 5 29 2 31 -4 5 -119 32 -137 33 -4 0 -10 -7 -13 -16z"/>
<path d="M3430 5350 c-14 -27 -12 -47 6 -54 26 -10 32 -7 42 23 9 25 7 30 -14
40 -20 9 -25 7 -34 -9z"/>
<path d="M1901 5341 c-7 -5 -12 -14 -9 -21 2 -8 11 -5 28 9 17 14 20 20 10 21
-8 0 -21 -4 -29 -9z"/>
<path d="M788 5329 c-24 -9 -26 -13 -16 -40 11 -32 15 -33 52 -20 23 9 24 12
13 40 -6 17 -14 31 -17 30 -3 0 -17 -5 -32 -10z"/>
<path d="M1796 5324 c-3 -9 -6 -29 -6 -46 0 -27 3 -30 23 -24 12 3 30 6 40 6
13 0 17 9 17 40 0 39 -1 40 -34 40 -22 0 -36 -6 -40 -16z"/>
<path d="M1965 5326 c-77 -34 -95 -91 -95 -297 0 -145 2 -159 18 -159 15 0 17
15 17 172 0 196 9 228 70 254 79 33 156 8 186 -61 18 -40 20 -66 20 -205 -1
-156 -1 -160 20 -160 20 0 21 3 17 168 -3 150 -5 172 -26 214 -17 35 -34 52
-66 67 -48 24 -116 27 -161 7z"/>
<path d="M2151 5337 c2 -1 12 -9 22 -16 14 -12 17 -11 17 3 0 10 -8 16 -22 16
-12 0 -19 -1 -17 -3z"/>
<path d="M2214 5316 c-10 -41 1 -56 41 -56 36 0 36 1 33 38 -3 34 -6 37 -35
40 -28 3 -33 -1 -39 -22z"/>
<path d="M1115 5316 c-40 -13 -52 -30 -37 -54 7 -10 19 -10 64 0 31 7 56 16
57 21 7 51 -7 56 -84 33z"/>
<path d="M1617 5323 c-30 -3 -37 -8 -33 -20 3 -8 9 -26 12 -40 7 -25 7 -25 82
-19 42 4 79 9 84 12 4 3 8 21 8 40 l0 34 -57 -2 c-32 -1 -75 -3 -96 -5z"/>
<path d="M2880 5310 c0 -11 -1 -23 -2 -26 -2 -4 25 -15 59 -24 l62 -17 6 25
c8 31 2 36 -57 51 -63 15 -68 14 -68 -9z"/>
<path d="M3242 5305 c-7 -14 -12 -28 -12 -29 0 -4 58 -26 66 -26 1 0 5 14 9
31 11 51 -42 70 -63 24z"/>
<path d="M1023 5313 c-14 -5 -17 -31 -7 -57 10 -26 34 -6 34 30 0 34 -3 37
-27 27z"/>
<path d="M2313 5284 c3 -20 8 -38 10 -40 2 -2 36 -5 76 -6 l74 -3 12 36 13 36
-60 7 c-34 3 -77 6 -96 6 -34 0 -35 0 -29 -36z"/>
<path d="M673 5288 c-50 -20 -51 -21 -40 -47 6 -14 12 -27 13 -29 4 -6 114 32
114 39 0 16 -20 59 -27 58 -5 0 -31 -9 -60 -21z"/>
<path d="M1494 5279 c3 -17 6 -35 6 -40 0 -5 18 -9 40 -9 45 0 45 0 28 47 -10
29 -17 33 -46 33 -33 0 -34 -1 -28 -31z"/>
<path d="M2510 5274 c-7 -19 -10 -37 -8 -38 1 -2 20 -6 41 -9 27 -4 37 -2 37
7 0 8 3 28 6 45 6 30 5 31 -29 31 -32 0 -37 -4 -47 -36z"/>
<path d="M3329 5283 c-14 -37 -13 -39 44 -61 47 -18 53 -19 65 -4 24 32 14 48
-44 70 l-55 20 -10 -25z"/>
<path d="M1430 5285 c32 -18 40 -18 40 0 0 10 -10 15 -32 15 l-33 -1 25 -14z"/>
<path d="M2610 5280 c0 -20 1 -20 25 -4 14 9 25 18 25 20 0 2 -11 4 -25 4 -18
0 -25 -5 -25 -20z"/>
<path d="M3028 5269 c-3 -20 0 -33 9 -36 18 -7 22 -3 29 35 6 27 4 32 -14 32
-14 0 -21 -8 -24 -31z"/>
<path d="M898 5282 c-21 -4 -22 -12 -6 -47 12 -27 17 -29 34 -17 18 12 -7 69
-28 64z"/>
<path d="M1260 5248 c-86 -45 -99 -126 -55 -340 14 -66 25 -122 25 -123 0 -2
8 -1 18 2 17 4 17 9 -4 111 -45 210 -39 276 25 319 24 17 48 23 85 23 103 0
132 -51 170 -299 8 -51 17 -95 20 -98 3 -3 11 -3 19 0 12 4 12 17 0 84 -36
205 -60 272 -113 317 -42 35 -125 37 -190 4z"/>
<path d="M2644 5251 c-18 -11 -39 -30 -48 -43 -23 -32 -52 -134 -74 -260 -18
-102 -19 -107 -1 -111 19 -5 22 2 34 93 23 171 54 264 97 294 28 20 98 21 143
2 77 -32 88 -102 47 -303 -27 -135 -28 -143 -10 -143 10 0 18 1 18 3 0 1 11
56 25 122 44 214 30 302 -58 344 -55 27 -131 28 -173 2z"/>
<path d="M3157 5263 c-2 -5 -7 -20 -11 -35 -5 -23 -3 -28 13 -28 10 0 21 8 24
18 2 9 8 25 12 35 5 13 2 17 -13 17 -12 0 -23 -3 -25 -7z"/>
<path d="M1193 5253 c-15 -3 -23 -12 -23 -25 0 -21 0 -21 25 2 21 20 32 34 23
29 -2 -1 -13 -4 -25 -6z"/>
<path d="M2881 5234 c27 -29 29 -29 29 -5 0 12 -9 20 -26 24 l-25 4 22 -23z"/>
<path d="M787 5232 c-44 -15 -48 -18 -42 -41 4 -14 8 -28 10 -29 5 -5 108 28
118 38 11 10 -10 50 -26 49 -7 0 -34 -8 -60 -17z"/>
<path d="M3208 5225 c-13 -30 -17 -26 55 -52 l58 -21 10 26 c12 31 8 35 -55
56 -61 20 -54 21 -68 -9z"/>
<path d="M1110 5231 c-21 -6 -26 -14 -28 -50 l-3 -43 33 7 c18 4 37 11 41 15
9 8 -1 81 -12 79 -3 -1 -17 -4 -31 -8z"/>
<path d="M1813 5233 c-30 -4 -33 -8 -33 -37 0 -31 1 -32 35 -28 19 2 35 9 35
16 0 6 3 21 6 34 4 12 2 21 -2 20 -5 0 -24 -3 -41 -5z"/>
<path d="M2230 5229 c1 -43 13 -59 44 -59 30 0 32 2 28 30 -3 21 -10 30 -22
30 -10 0 -25 3 -34 6 -10 4 -16 1 -16 -7z"/>
<path d="M1712 5221 c-9 -5 -11 -17 -6 -34 4 -20 13 -27 30 -27 21 0 24 5 24
35 0 36 -18 46 -48 26z"/>
<path d="M2924 5195 c-3 -20 -5 -38 -3 -40 2 -2 21 -6 42 -10 l37 -7 0 40 c0
41 -11 52 -50 52 -14 0 -21 -10 -26 -35z"/>
<path d="M1005 5215 c-5 -2 -29 -9 -52 -15 l-41 -10 16 -41 c10 -27 20 -38 30
-34 8 3 34 10 58 16 43 11 44 13 44 50 0 34 -3 39 -22 38 -13 0 -27 -2 -33 -4z"/>
<path d="M1620 5198 c0 -34 15 -50 41 -46 13 1 23 6 22 11 -2 4 -3 18 -3 32 0
21 -5 25 -30 25 -24 0 -30 -4 -30 -22z"/>
<path d="M2323 5198 c4 -13 7 -29 7 -35 0 -7 12 -13 26 -13 23 0 25 3 22 33
-3 27 -7 33 -32 35 -26 3 -28 1 -23 -20z"/>
<path d="M1520 5200 c0 -18 23 -60 34 -60 6 0 21 3 33 6 19 5 20 9 11 35 -8
24 -15 29 -44 29 -19 0 -34 -4 -34 -10z"/>
<path d="M2406 5194 c-13 -34 -7 -54 18 -54 22 0 35 21 36 58 0 18 -47 15 -54
-4z"/>
<path d="M2482 5181 c-12 -35 -8 -41 30 -41 22 0 31 6 39 27 11 30 0 43 -38
43 -14 0 -24 -9 -31 -29z"/>
<path d="M3022 5169 c3 -40 5 -42 48 -55 25 -8 48 -14 52 -14 8 0 38 54 38 68
0 8 -111 42 -135 42 -3 0 -5 -19 -3 -41z"/>
<path d="M678 5193 c-21 -5 -23 -23 -5 -46 14 -19 57 -13 57 8 0 39 -13 48
-52 38z"/>
<path d="M3356 5184 c-11 -28 -6 -41 19 -52 23 -11 27 -9 36 15 11 28 6 37
-27 47 -15 5 -24 2 -28 -10z"/>
<path d="M863 5170 c-20 -8 -21 -12 -10 -45 10 -32 14 -36 36 -30 14 4 27 8
29 9 3 3 -27 76 -31 75 -1 0 -12 -4 -24 -9z"/>
<path d="M3172 5138 c-13 -34 -9 -42 24 -52 18 -6 23 -1 31 33 9 32 8 41 -4
45 -28 11 -39 6 -51 -26z"/>
<path d="M795 5140 c3 -5 10 -10 16 -10 5 0 9 5 9 10 0 6 -7 10 -16 10 -8 0
-12 -4 -9 -10z"/>
<path d="M1800 5141 c-19 -5 -26 -14 -28 -39 -3 -31 -2 -32 32 -32 35 0 36 1
36 40 0 22 -3 40 -7 39 -5 -1 -19 -4 -33 -8z"/>
<path d="M2240 5115 c0 -34 1 -35 39 -35 36 0 38 1 33 28 -6 31 -18 42 -49 42
-20 0 -23 -5 -23 -35z"/>
<path d="M3257 5136 c-4 -10 1 -12 14 -9 23 6 24 9 5 16 -8 3 -17 0 -19 -7z"/>
<path d="M1678 5133 c-21 -2 -38 -6 -38 -7 0 -2 5 -17 11 -35 11 -30 14 -32
53 -29 40 3 41 4 44 41 3 31 0 37 -15 35 -10 -1 -35 -3 -55 -5z"/>
<path d="M1108 5123 c-13 -3 -18 -15 -18 -39 0 -32 2 -34 28 -28 40 10 42 12
42 45 0 30 -9 33 -52 22z"/>
<path d="M1577 5122 c-24 -3 -28 -7 -23 -25 3 -12 6 -28 6 -35 0 -9 11 -12 33
-10 23 2 33 8 35 23 4 30 -19 51 -51 47z"/>
<path d="M2338 5091 c4 -40 5 -41 41 -41 34 0 39 3 48 35 10 33 10 35 -12 35
-12 0 -36 3 -52 6 -28 6 -29 5 -25 -35z"/>
<path d="M2920 5109 c0 -33 11 -46 43 -54 26 -7 27 -5 27 29 0 22 -5 36 -12
36 -7 0 -23 3 -35 6 -19 5 -23 2 -23 -17z"/>
<path d="M701 5111 c-23 -15 -2 -31 41 -31 77 0 120 -58 193 -255 41 -111 45
-117 62 -107 13 8 -66 218 -112 296 -39 67 -88 106 -133 106 -20 0 -43 -4 -51
-9z"/>
<path d="M1038 5112 c-19 -4 -22 -19 -12 -46 8 -22 44 -21 43 2 -1 30 -13 48
-31 44z"/>
<path d="M2456 5098 c-11 -42 -7 -48 29 -48 21 0 35 5 35 13 0 6 3 22 6 35 6
20 3 22 -29 22 -28 0 -36 -5 -41 -22z"/>
<path d="M3284 5106 c-38 -17 -71 -59 -114 -146 -41 -82 -103 -241 -96 -247
15 -15 36 13 60 84 74 208 121 273 206 281 27 2 50 8 50 13 0 22 -68 32 -106
15z"/>
<path d="M963 5093 c-10 -3 -9 -12 3 -34 14 -29 40 -36 38 -11 -1 7 -2 21 -2
32 -2 19 -14 24 -39 13z"/>
<path d="M3014 5074 c-7 -28 10 -54 25 -38 5 5 13 21 16 37 6 23 4 27 -14 27
-14 0 -23 -8 -27 -26z"/>
<path d="M3075 5059 c-10 -46 16 -59 33 -17 11 26 11 32 0 39 -21 14 -26 11
-33 -22z"/>
<path d="M901 5071 c-12 -8 -13 -14 -3 -35 13 -28 19 -31 41 -17 12 8 13 14 3
35 -13 28 -19 31 -41 17z"/>
<path d="M3140 5060 c-15 -28 -12 -47 9 -53 13 -3 22 3 30 20 15 33 14 40 -9
46 -13 3 -24 -1 -30 -13z"/>
<path d="M2246 5029 c-9 -48 -9 -49 39 -49 49 0 53 7 35 54 -7 20 -17 26 -39
26 -24 0 -29 -5 -35 -31z"/>
<path d="M1767 5043 c-4 -3 -7 -21 -7 -40 0 -35 10 -39 58 -27 17 5 22 14 22
40 0 32 -2 34 -33 34 -19 0 -37 -3 -40 -7z"/>
<path d="M1111 5033 c-20 -4 -22 -9 -17 -36 3 -17 8 -32 9 -33 6 -6 57 11 57
19 1 60 2 59 -49 50z"/>
<path d="M1670 5028 c1 -7 7 -26 15 -43 l13 -30 1 43 c1 31 -3 42 -14 42 -8 0
-15 -6 -15 -12z"/>
<path d="M1720 5005 c0 -19 5 -35 10 -35 6 0 10 16 10 35 0 19 -4 35 -10 35
-5 0 -10 -16 -10 -35z"/>
<path d="M2920 5007 c0 -29 4 -36 27 -41 29 -8 43 5 43 42 0 15 -6 22 -19 22
-11 0 -26 3 -35 6 -13 5 -16 -1 -16 -29z"/>
<path d="M1023 5019 c-18 -5 -33 -11 -33 -13 0 -2 5 -17 11 -35 8 -22 16 -30
26 -27 8 3 21 6 29 6 10 0 14 12 14 40 0 22 -3 40 -7 39 -5 0 -23 -5 -40 -10z"/>
<path d="M1574 4999 c3 -17 6 -34 6 -38 0 -4 18 -5 40 -3 41 4 44 10 34 50 -5
18 -13 22 -46 22 -40 0 -40 0 -34 -31z"/>
<path d="M2351 5003 c0 -16 4 -48 8 -73 l7 -45 19 60 c10 33 20 66 22 73 4 8
-5 12 -26 12 -27 0 -31 -3 -30 -27z"/>
<path d="M2425 4999 c-8 -36 -9 -35 36 -43 32 -6 37 -4 43 16 13 50 8 58 -33
58 -36 0 -40 -3 -46 -31z"/>
<path d="M3010 4976 c0 -22 6 -36 16 -40 27 -10 33 -7 49 24 15 29 15 31 -10
40 -45 17 -55 13 -55 -24z"/>
<path d="M936 4991 c-8 -13 17 -71 31 -71 19 0 23 16 12 49 -10 30 -32 41 -43
22z"/>
<path d="M3102 4965 c-16 -36 -15 -45 6 -45 20 0 46 45 37 61 -11 17 -32 9
-43 -16z"/>
<path d="M2240 4909 c0 -43 3 -50 18 -47 13 2 18 15 20 51 3 42 1 47 -17 47
-18 0 -21 -6 -21 -51z"/>
<path d="M1118 4943 c-13 -3 -18 -15 -18 -44 l0 -40 38 7 c48 8 51 12 40 52
-8 32 -19 36 -60 25z"/>
<path d="M1700 4938 c0 -25 12 -58 21 -58 5 0 9 16 9 35 0 24 -5 35 -15 35 -8
0 -15 -6 -15 -12z"/>
<path d="M1750 4905 c0 -48 0 -48 24 -39 11 4 16 19 16 45 0 32 -3 39 -20 39
-17 0 -20 -7 -20 -45z"/>
<path d="M1810 4910 c0 -33 3 -40 20 -40 21 0 25 16 14 58 -11 39 -34 27 -34
-18z"/>
<path d="M2300 4906 c0 -40 3 -46 21 -46 18 0 20 5 17 42 -2 31 -8 44 -20 46
-15 3 -18 -4 -18 -42z"/>
<path d="M2902 4919 c-11 -41 -8 -45 41 -54 l37 -7 0 41 c0 26 -5 41 -12 41
-7 0 -23 3 -35 6 -18 5 -23 1 -31 -27z"/>
<path d="M1603 4933 c-14 -5 -17 -41 -7 -67 10 -27 34 -19 33 12 -1 37 -12 60
-26 55z"/>
<path d="M1649 4903 c5 -29 12 -39 27 -41 20 -3 21 -1 11 37 -7 27 -17 41 -27
41 -14 0 -16 -7 -11 -37z"/>
<path d="M2401 4918 c-24 -65 -24 -70 1 -66 19 2 23 10 26 46 3 46 -13 58 -27
20z"/>
<path d="M1061 4918 c0 -7 4 -22 9 -33 7 -17 9 -15 9 13 1 17 -3 32 -9 32 -5
0 -10 -6 -9 -12z"/>
<path d="M2456 4914 c-9 -25 -7 -62 5 -69 15 -10 20 -2 26 44 4 32 2 41 -10
41 -8 0 -18 -7 -21 -16z"/>
<path d="M1037 4880 c9 -22 18 -38 21 -36 6 7 -19 76 -28 76 -5 0 -1 -18 7
-40z"/>
<path d="M3000 4866 c0 -28 -3 -62 -6 -76 -2 -14 6 -2 20 27 39 83 40 90 11
95 -24 5 -25 3 -25 -46z"/>
<path d="M975 4899 c-7 -11 13 -69 24 -69 3 0 12 4 19 9 12 7 11 14 -2 40 -17
32 -30 39 -41 20z"/>
<path d="M3062 4870 c-9 -24 -8 -31 6 -39 13 -7 19 -3 29 21 7 16 10 34 7 39
-11 18 -32 8 -42 -21z"/>
<path d="M1173 4852 c-19 -12 -5 -84 16 -80 11 3 15 12 13 33 -5 39 -15 56
-29 47z"/>
<path d="M2887 4843 c-3 -5 -8 -22 -11 -39 -5 -23 -3 -33 8 -37 19 -7 22 -2
31 46 6 30 4 37 -8 37 -9 0 -18 -3 -20 -7z"/>
<path d="M1110 4796 c0 -40 2 -44 21 -39 17 5 20 11 15 36 -3 16 -6 33 -6 38
0 5 -7 9 -15 9 -11 0 -15 -12 -15 -44z"/>
<path d="M1795 4829 c-263 -16 -544 -69 -775 -146 -145 -48 -180 -65 -180 -88
0 -35 32 -32 162 12 295 100 583 151 900 160 396 11 741 -39 1143 -167 183
-58 172 -57 186 -26 18 38 4 48 -141 94 -294 95 -558 143 -895 162 -187 11
-211 11 -400 -1z"/>
<path d="M2936 4809 c-9 -48 -8 -56 14 -62 18 -5 20 0 20 44 0 57 -23 69 -34
18z"/>
<path d="M5136 4824 c-183 -44 -335 -209 -393 -424 -13 -49 -18 -104 -18 -220
0 -176 12 -238 70 -356 106 -217 333 -331 582 -294 127 20 218 64 299 148 62
64 111 167 129 269 l6 41 -98 6 c-54 4 -119 9 -144 11 l-46 5 -16 -57 c-21
-73 -46 -113 -93 -149 -35 -27 -44 -29 -125 -29 -82 0 -89 2 -126 31 -90 73
-108 137 -107 379 0 144 4 180 21 233 40 118 96 172 188 180 128 11 200 -53
226 -202 l11 -68 117 7 c144 7 191 14 191 26 0 38 -38 166 -66 226 -59 124
-161 206 -295 238 -79 18 -234 18 -313 -1z"/>
<path d="M1071 4815 c0 -11 4 -27 9 -35 9 -13 10 -13 9 0 0 8 -4 24 -9 35 l-9
20 0 -20z"/>
<path d="M1023 4813 c-16 -6 -16 -25 -1 -58 12 -27 16 -29 36 -17 10 7 9 16
-3 45 -8 20 -16 37 -18 36 -1 0 -8 -3 -14 -6z"/>
<path d="M5990 4180 l0 -641 148 3 147 3 3 638 2 637 -150 0 -150 0 0 -640z"/>
<path d="M6542 4183 l3 -638 240 -3 c283 -3 368 8 482 63 147 69 271 235 308
410 8 39 15 116 15 173 0 180 -44 312 -145 434 -58 71 -102 107 -174 144 -88
44 -177 54 -467 54 l-264 0 2 -637z m549 384 c178 -78 250 -378 145 -602 -63
-134 -131 -177 -293 -183 l-103 -4 0 407 0 408 108 -5 c65 -4 121 -12 143 -21z"/>
<path d="M8025 4808 c-2 -7 -93 -289 -201 -627 -108 -338 -198 -620 -201 -628
-4 -10 21 -13 126 -13 l130 0 42 135 43 135 206 0 207 0 40 -132 39 -133 162
-3 161 -2 -14 42 c-8 24 -78 248 -155 498 -78 250 -162 519 -186 598 l-45 142
-175 0 c-131 0 -176 -3 -179 -12z m275 -750 c0 -16 -13 -18 -130 -18 -96 0
-130 3 -130 12 0 11 110 384 126 428 6 15 133 -389 134 -422z"/>
<path d="M8920 4180 l0 -642 283 5 c215 3 295 8 336 20 201 59 345 210 402
424 27 101 30 286 5 387 -33 138 -141 292 -256 366 -104 67 -142 73 -472 78
l-298 4 0 -642z m521 394 c189 -56 279 -377 171 -608 -38 -81 -74 -122 -136
-153 -44 -23 -67 -28 -158 -31 l-108 -4 0 406 0 406 88 0 c52 0 111 -7 143
-16z"/>
<path d="M10170 4180 l0 -640 455 0 455 0 0 125 0 125 -305 0 -305 0 0 145 0
145 240 0 240 0 0 120 0 120 -240 0 -240 0 0 130 0 130 305 0 305 0 0 120 0
120 -455 0 -455 0 0 -640z"/>
<path d="M11742 4183 l3 -638 240 -3 c283 -3 368 8 482 63 149 70 271 235 308
413 21 104 19 261 -4 354 -45 174 -157 321 -298 393 -90 45 -177 55 -469 55
l-264 0 2 -637z m560 378 c110 -53 180 -194 180 -365 1 -98 -15 -171 -53 -247
-60 -120 -130 -161 -286 -167 l-103 -4 0 407 0 408 108 -5 c84 -4 117 -10 154
-27z"/>
<path d="M12990 4180 l0 -640 460 0 460 0 0 125 0 125 -305 0 -305 0 0 145 0
145 240 0 241 0 -3 118 -3 117 -237 3 -238 2 0 130 0 130 305 0 305 0 0 120 0
120 -460 0 -460 0 0 -640z"/>
<path d="M3023 4779 c-14 -35 -10 -49 13 -49 14 0 34 38 34 66 0 27 -35 15
-47 -17z"/>
<path d="M1898 4743 c-29 -3 -38 -9 -38 -23 0 -26 13 -31 59 -24 35 6 41 10
41 30 0 13 -6 23 -12 22 -7 -1 -30 -3 -50 -5z"/>
<path d="M1980 4726 c0 -24 3 -26 51 -26 47 0 50 2 47 23 -3 19 -10 22 -50 25
-46 3 -48 2 -48 -22z"/>
<path d="M1750 4715 c0 -23 4 -25 45 -25 41 0 45 2 45 25 0 23 -4 25 -45 25
-41 0 -45 -2 -45 -25z"/>
<path d="M2100 4721 c0 -22 19 -31 66 -31 30 0 34 3 34 25 0 23 -3 25 -50 25
-42 0 -50 -3 -50 -19z"/>
<path d="M2227 4719 c-4 -13 -5 -25 -3 -26 2 -2 26 -6 55 -10 50 -6 51 -5 51
21 0 22 -4 26 -27 26 -16 0 -38 3 -49 6 -16 4 -23 0 -27 -17z"/>
<path d="M1634 4715 c-10 -24 6 -35 52 -35 40 0 44 2 44 25 0 23 -4 25 -45 25
-31 0 -47 -5 -51 -15z"/>
<path d="M2352 4701 c3 -24 7 -26 48 -26 38 0 45 3 45 20 0 16 -9 21 -48 26
-47 5 -48 4 -45 -20z"/>
<path d="M1543 4713 c-24 -3 -33 -9 -33 -23 0 -26 13 -31 59 -24 35 6 41 10
41 30 0 25 -1 25 -67 17z"/>
<path d="M2470 4687 c0 -21 6 -26 36 -32 26 -4 39 -2 45 7 15 23 10 38 -13 38
-13 0 -33 3 -45 6 -19 5 -23 2 -23 -19z"/>
<path d="M1428 4693 c-28 -4 -34 -17 -19 -41 6 -9 19 -11 45 -7 29 6 36 12 36
31 0 25 -4 26 -62 17z"/>
<path d="M2580 4668 c0 -21 7 -26 45 -35 48 -11 55 -9 55 18 0 22 -5 25 -57
34 -41 6 -43 5 -43 -17z"/>
<path d="M1312 4669 c-28 -8 -32 -13 -26 -32 3 -12 7 -23 8 -24 0 -1 23 4 49
10 34 7 46 15 42 25 -3 7 -5 18 -5 23 0 11 -24 10 -68 -2z"/>
<path d="M1732 4663 c-27 -4 -33 -8 -30 -26 3 -19 10 -22 51 -25 46 -3 47 -3
47 27 0 33 1 32 -68 24z"/>
<path d="M1820 4645 c0 -23 4 -25 45 -25 41 0 45 2 45 25 0 23 -4 25 -45 25
-41 0 -45 -2 -45 -25z"/>
<path d="M1930 4645 c0 -23 4 -25 45 -25 41 0 45 2 45 25 0 23 -4 25 -45 25
-41 0 -45 -2 -45 -25z"/>
<path d="M2040 4645 c0 -23 3 -25 50 -25 47 0 50 2 50 25 0 23 -3 25 -50 25
-47 0 -50 -2 -50 -25z"/>
<path d="M2167 4663 c-14 -13 -7 -43 11 -43 9 0 34 -3 55 -6 35 -6 37 -5 37
19 0 17 -7 26 -22 31 -31 8 -73 8 -81 -1z"/>
<path d="M2703 4654 c-9 -25 5 -41 41 -48 42 -8 56 -2 56 23 0 24 -89 46 -97
25z"/>
<path d="M1628 4653 c-28 -3 -38 -9 -38 -21 0 -32 14 -42 53 -35 33 5 37 9 37
34 0 16 -3 28 -7 27 -5 -1 -25 -3 -45 -5z"/>
<path d="M2290 4635 c0 -15 6 -25 14 -25 7 0 27 -3 43 -6 26 -5 31 -3 35 19 4
21 0 26 -25 31 -55 11 -67 8 -67 -19z"/>
<path d="M1192 4639 c-28 -8 -32 -13 -26 -32 9 -30 6 -29 58 -16 47 12 51 16
40 43 -7 18 -23 19 -72 5z"/>
<path d="M2406 4627 c-7 -27 -6 -28 42 -34 34 -5 40 -2 45 16 6 23 2 26 -49
35 -27 4 -33 1 -38 -17z"/>
<path d="M1503 4633 c-23 -4 -30 -27 -15 -49 4 -6 23 -9 45 -6 33 4 37 7 37
33 0 30 -9 33 -67 22z"/>
<path d="M2818 4615 c-5 -22 -1 -26 34 -35 43 -12 58 -7 58 20 0 11 -10 20
-27 24 -16 4 -35 9 -44 12 -12 3 -18 -3 -21 -21z"/>
<path d="M2517 4608 c-8 -27 -10 -26 39 -34 36 -5 42 -4 47 15 6 24 4 26 -44
35 -32 6 -37 4 -42 -16z"/>
<path d="M1084 4607 c-28 -11 -30 -15 -23 -36 8 -20 14 -23 41 -17 41 8 52 19
43 45 -7 24 -16 25 -61 8z"/>
<path d="M1390 4611 c-19 -6 -24 -13 -22 -31 3 -32 3 -32 51 -24 37 6 41 9 41
35 0 31 -16 35 -70 20z"/>
<path d="M2626 4594 c-11 -27 -7 -31 38 -43 57 -14 53 -15 58 14 4 20 0 25
-26 30 -17 4 -38 9 -47 11 -9 3 -19 -3 -23 -12z"/>
<path d="M2931 4587 c-7 -18 -4 -24 18 -33 61 -26 71 -27 80 -2 11 28 13 26
-43 43 -45 14 -47 14 -55 -8z"/>
<path d="M1288 4587 c-38 -11 -47 -28 -29 -55 12 -20 95 3 87 24 -3 9 -6 22
-6 30 0 16 0 16 -52 1z"/>
<path d="M992 4577 c-29 -9 -33 -13 -27 -36 9 -35 8 -34 48 -17 29 11 34 19
30 35 -7 28 -12 30 -51 18z"/>
<path d="M1745 4579 c-212 -21 -444 -74 -661 -150 -127 -44 -158 -63 -151 -91
5 -16 -2 -18 -49 -18 l-54 0 0 -879 c0 -743 2 -892 15 -967 80 -464 305 -807
638 -974 172 -87 334 -123 557 -123 161 0 263 13 389 49 365 106 620 372 755
786 31 95 33 108 25 168 -30 218 -121 361 -338 528 -22 17 -23 19 -7 56 28 67
105 172 168 231 56 52 182 125 215 125 10 0 13 101 13 500 l0 500 -64 0 c-62
0 -63 1 -59 24 6 30 -11 40 -162 89 -152 50 -374 103 -535 128 -155 24 -543
34 -695 18z m715 -98 c149 -26 410 -89 535 -130 l90 -29 -597 -1 -598 -1 1
-114 c1 -161 -21 -224 -94 -280 -32 -25 -36 -26 -63 -12 -16 8 -38 18 -48 21
-17 5 -18 12 -12 77 11 119 66 220 152 277 l47 31 -444 1 -444 1 105 34 c186
61 401 111 600 139 162 22 604 14 770 -14z m-864 -303 c-61 -71 -58 -153 7
-216 l34 -33 -21 -44 c-20 -43 -23 -44 -67 -45 -49 0 -89 -23 -110 -62 -6 -12
-17 -58 -23 -102 l-11 -81 -37 60 c-61 100 -81 161 -82 245 0 59 4 84 21 115
24 47 95 115 144 141 26 13 158 61 177 64 2 0 -12 -19 -32 -42z m128 -279 c49
-38 23 -111 -41 -111 -31 0 -63 33 -63 67 0 24 42 65 65 65 7 0 24 -9 39 -21z
m106 -74 c73 -37 73 -47 -2 -39 -34 4 -64 8 -66 9 -4 4 9 55 14 55 3 0 27 -11
54 -25z m1050 -20 c133 -22 310 -65 310 -75 0 -15 -88 -71 -153 -97 -34 -14
-97 -33 -140 -42 l-79 -17 80 -37 c43 -21 111 -45 150 -55 40 -9 72 -20 72
-24 0 -4 -17 -16 -37 -27 -69 -34 -177 -63 -268 -70 l-90 -7 86 -41 c47 -23
106 -47 132 -54 37 -9 45 -14 37 -25 -22 -26 -106 -46 -217 -51 l-112 -6 42
-34 c23 -18 78 -51 121 -73 l80 -39 -30 -12 c-56 -22 -184 -21 -369 1 -314 38
-341 37 -575 -9 -113 -22 -245 -45 -293 -51 -84 -12 -179 -8 -204 8 -8 5 32
119 132 380 78 205 145 375 148 378 2 3 35 0 72 -7 104 -18 233 -7 337 29 96
33 198 58 298 72 90 12 356 4 470 -15z m-1195 -45 c-2 -3 -69 -178 -150 -390
-81 -212 -151 -389 -155 -393 -4 -5 -21 -2 -38 7 l-30 15 147 383 c81 211 150
390 153 400 6 15 9 15 41 0 19 -10 33 -19 32 -22z m-323 -811 l106 -52 31 -86
c51 -148 57 -158 107 -187 43 -25 274 -104 438 -150 37 -10 71 -25 73 -32 10
-24 -51 -127 -107 -182 -91 -89 -220 -140 -361 -140 l-65 0 -75 92 c-41 51
-80 101 -88 111 -12 17 -8 30 30 109 65 138 65 180 -2 343 -28 69 -31 71 -95
103 -37 18 -68 32 -69 30 -1 -2 -12 -21 -23 -43 -20 -41 -68 -95 -83 -95 -13
0 -12 4 21 82 17 38 30 88 30 109 0 25 5 39 13 39 6 0 60 -23 119 -51z m-179
-45 c7 -7 -12 -64 -21 -64 -28 2 -52 46 -35 63 8 9 48 9 56 1z m1783 -130 c64
-65 138 -175 170 -255 14 -34 24 -63 22 -64 -2 -2 -90 83 -197 188 l-195 190
34 28 33 28 41 -32 c23 -17 64 -55 92 -83z m-1626 80 l25 -15 -25 5 c-17 4
-32 -2 -47 -16 -27 -25 -30 -18 -7 17 19 29 21 29 54 9z m-210 -32 c19 -16 20
-20 9 -45 -15 -34 -38 -32 -58 5 -13 22 -13 29 -2 42 17 20 24 20 51 -2z m307
-93 c47 -117 48 -129 7 -244 -40 -112 -38 -111 -138 -95 -47 7 -90 16 -96 20
-15 9 14 76 40 92 11 7 20 21 20 31 0 11 9 30 20 44 13 17 18 34 14 46 -4 13
-2 17 5 13 6 -4 11 -17 11 -29 0 -27 36 -107 48 -107 19 0 18 13 -6 72 -30 76
-27 166 7 221 13 22 18 37 11 40 -6 3 -5 4 2 3 7 -1 32 -49 55 -107z m-97 79
c-1 -7 -6 -26 -13 -41 -12 -27 -13 -27 -36 -11 l-24 17 27 14 c14 7 26 18 26
23 0 6 5 10 10 10 6 0 10 -6 10 -12z m1826 -474 l-29 -26 -219 219 c-120 120
-218 222 -218 228 0 6 12 18 28 27 l27 17 220 -220 220 -220 -29 -25z m-1876
386 c19 -14 22 -22 14 -38 -9 -18 -12 -18 -83 15 l-74 34 34 18 c37 19 51 15
109 -29z m-16 -96 c15 -39 -14 -36 -123 12 -100 44 -111 51 -111 75 0 14 3 28
6 32 10 10 221 -100 228 -119z m1632 -126 l216 -212 -29 -23 c-15 -13 -31 -23
-34 -23 -4 0 -102 99 -219 220 -200 207 -212 222 -194 235 10 8 24 15 31 15 7
0 110 -95 229 -212z m-1671 54 c3 -9 0 -22 -8 -29 -12 -12 -26 -9 -93 17 -98
39 -124 55 -124 78 0 42 20 41 120 -6 55 -25 102 -52 105 -60z m1576 -118
c101 -107 185 -199 187 -204 2 -7 -278 -241 -314 -263 -8 -5 -15 13 -23 54
-22 128 -103 242 -223 316 l-58 36 25 29 c49 58 210 228 216 228 4 0 89 -88
190 -196z m-1713 91 c6 -6 -9 -45 -17 -45 -7 0 -31 43 -31 56 0 5 41 -5 48
-11z m61 -26 c17 -6 31 -14 31 -17 0 -8 -150 -405 -155 -410 -2 -2 -53 17 -64
25 -3 2 150 413 155 413 0 0 15 -5 33 -11z m1073 -127 c40 -16 82 -32 93 -36
17 -7 14 -11 -26 -31 -62 -32 -133 -113 -158 -180 -25 -66 -41 -160 -41 -237
0 -32 -3 -58 -6 -58 -4 0 -99 57 -211 126 l-205 127 91 23 c168 42 300 134
352 244 13 28 27 50 31 50 4 0 40 -13 80 -28z m284 -140 c53 -52 101 -149 110
-219 4 -29 4 -53 0 -53 -4 0 -28 11 -55 24 -58 30 -101 78 -140 155 -24 48
-61 159 -61 186 0 14 106 -53 146 -93z m-211 -115 c-19 -75 -66 -147 -122
-188 l-43 -30 0 50 c0 119 49 228 130 289 l45 35 3 -47 c2 -25 -4 -74 -13
-109z m113 -49 c33 -53 115 -124 167 -144 l45 -17 -42 -58 c-63 -90 -130 -149
-170 -149 -37 0 -122 38 -228 101 l-70 41 62 42 c71 47 122 108 138 164 6 20
16 74 22 120 l12 82 21 -73 c11 -40 31 -89 43 -109z"/>
<path d="M2175 3693 c-56 -6 -148 -25 -173 -34 l-25 -10 41 -42 c40 -41 41
-44 31 -80 -10 -37 -10 -37 -64 -37 -50 0 -55 2 -85 40 -17 22 -35 40 -39 40
-14 0 -91 -175 -111 -254 -32 -127 -33 -127 74 -52 67 46 104 66 125 66 17 0
31 -2 31 -5 0 -25 -50 -90 -103 -135 -36 -30 -65 -56 -64 -57 5 -4 367 24 373
30 3 3 -7 22 -22 42 -27 36 -27 38 -13 78 l14 42 61 3 60 3 38 -56 c21 -30 42
-55 46 -55 10 0 120 314 120 342 0 4 -35 -10 -77 -29 -51 -24 -98 -38 -135
-41 l-57 -4 11 33 c7 25 35 54 100 107 l90 72 -109 -1 c-59 -1 -121 -4 -138
-6z m97 -73 c-40 -33 -61 -59 -65 -79 -3 -16 -9 -40 -13 -55 l-6 -26 71 0 c60
0 81 5 132 31 60 30 61 30 54 7 -15 -48 -76 -203 -84 -211 -4 -4 -22 11 -40
33 l-33 41 -70 -3 -71 -3 -23 -60 -22 -60 21 -22 c11 -13 19 -25 16 -27 -5 -6
-252 -26 -257 -22 -2 2 18 19 44 37 33 25 53 49 70 88 13 29 24 55 24 57 0 2
-29 4 -63 4 -59 0 -68 -3 -121 -41 -32 -23 -60 -38 -64 -35 -7 8 18 83 61 180
l31 69 26 -32 c25 -30 30 -31 102 -31 l75 0 13 54 c13 54 12 55 -14 87 -23 27
-25 34 -13 41 24 13 116 26 200 27 l79 1 -60 -50z"/>
<path d="M2110 3503 c-11 -32 -23 -64 -25 -70 -3 -9 -29 -13 -84 -13 -75 0
-91 -6 -91 -36 0 -2 36 -4 79 -4 l80 0 -20 -57 c-23 -69 -23 -73 -1 -73 14 0
24 18 41 70 l22 70 93 0 c85 0 94 2 99 20 5 19 0 20 -84 20 -49 0 -89 4 -89 8
0 5 9 34 19 65 19 55 19 57 1 57 -14 0 -24 -15 -40 -57z"/>
<path d="M2747 4573 c-4 -3 -7 -14 -7 -23 0 -23 86 -44 95 -23 10 26 5 32 -32
42 -45 13 -48 13 -56 4z"/>
<path d="M1185 4556 c-41 -12 -52 -30 -36 -55 8 -12 16 -13 50 -2 38 11 41 14
35 39 -4 15 -7 28 -8 28 -1 1 -19 -4 -41 -10z"/>
<path d="M3051 4548 c-9 -24 -4 -30 37 -42 17 -6 24 -3 31 16 9 24 4 30 -37
42 -17 6 -24 3 -31 -16z"/>
<path d="M3510 4535 c0 -45 16 -64 23 -28 3 17 0 33 -9 43 -12 12 -14 10 -14
-15z"/>
<path d="M557 4543 c-10 -9 -8 -45 2 -62 6 -9 10 0 13 28 3 39 -1 49 -15 34z"/>
<path d="M910 4537 c0 -7 6 -21 13 -32 17 -22 32 -5 22 25 -7 22 -35 28 -35 7z"/>
<path d="M2857 4530 c-5 -21 0 -26 61 -44 17 -6 24 -3 31 16 9 25 3 29 -55 42
-27 6 -32 4 -37 -14z"/>
<path d="M3476 4528 c-3 -13 -1 -27 4 -32 7 -7 10 1 10 22 0 37 -5 41 -14 10z"/>
<path d="M3141 4518 c-6 -17 -5 -25 6 -32 17 -9 35 10 30 33 -4 24 -27 24 -36
-1z"/>
<path d="M597 4517 c-11 -29 -9 -43 4 -30 6 6 9 19 7 29 -3 18 -4 18 -11 1z"/>
<path d="M1063 4518 c-33 -11 -41 -30 -24 -57 8 -12 14 -12 44 0 19 8 35 17
36 22 6 48 0 53 -56 35z"/>
<path d="M2973 4505 c-9 -25 3 -40 41 -52 37 -12 36 -12 40 28 1 7 -16 18 -37
25 -32 11 -39 11 -44 -1z"/>
<path d="M513 4498 c-7 -9 -6 -27 7 -63 13 -40 18 -46 23 -30 4 11 1 39 -6 63
-10 34 -16 41 -24 30z"/>
<path d="M3544 4465 c-3 -25 -4 -48 -1 -52 9 -8 38 69 33 84 -11 27 -25 12
-32 -32z"/>
<path d="M963 4480 c-24 -10 -27 -18 -17 -44 14 -36 78 -7 68 32 -7 24 -16 26
-51 12z"/>
<path d="M829 4469 c-21 -8 -28 -18 -31 -44 -3 -31 -2 -33 12 -20 14 13 55 76
48 74 -2 0 -15 -5 -29 -10z"/>
<path d="M3075 4459 c-4 -11 -5 -22 -3 -23 1 -1 16 -8 32 -14 24 -11 31 -11
37 0 15 24 9 36 -22 47 -40 14 -37 15 -44 -10z"/>
<path d="M3257 4438 l28 -42 3 29 c4 29 -17 55 -45 55 -9 0 -4 -14 14 -42z"/>
<path d="M3454 4465 c-7 -18 7 -37 48 -66 26 -19 27 -19 21 -2 -3 10 -19 33
-35 51 -22 26 -29 30 -34 17z"/>
<path d="M598 4443 c-14 -16 -31 -39 -38 -52 -12 -23 -10 -22 28 8 49 39 57
50 45 62 -6 6 -19 -2 -35 -18z"/>
<path d="M3200 4453 c0 -12 9 -27 20 -33 25 -13 25 -2 0 30 -19 25 -20 25 -20
3z"/>
<path d="M862 4439 c-17 -27 -5 -40 14 -15 8 11 14 23 14 28 0 15 -15 8 -28
-13z"/>
<path d="M3577 4403 c-9 -32 -13 -71 -10 -87 5 -25 8 -20 29 44 21 67 22 100
4 100 -4 0 -14 -26 -23 -57z"/>
<path d="M470 4427 c0 -29 29 -118 43 -132 13 -14 2 92 -14 128 -15 33 -29 35
-29 4z"/>
<path d="M3315 4398 c4 -29 13 -60 21 -68 12 -12 14 -7 14 43 0 47 -3 58 -21
68 -21 11 -21 10 -14 -43z"/>
<path d="M751 4426 c-7 -8 -11 -37 -9 -68 3 -45 5 -50 14 -33 14 24 25 115 14
115 -4 0 -13 -6 -19 -14z"/>
<path d="M3427 4410 c-4 -15 11 -34 55 -75 33 -31 63 -53 66 -50 11 11 -30 72
-73 108 -39 33 -43 34 -48 17z"/>
<path d="M593 4370 c-28 -27 -53 -61 -55 -75 -5 -22 -3 -24 11 -13 39 29 111
103 111 115 0 27 -20 20 -67 -27z"/>
<path d="M3210 4381 c0 -15 86 -68 96 -58 2 2 -9 17 -24 34 -32 37 -72 50 -72
24z"/>
<path d="M3370 4341 c0 -65 14 -116 30 -106 17 10 12 131 -6 149 -8 9 -17 16
-20 16 -2 0 -4 -27 -4 -59z"/>
<path d="M692 4378 c-7 -7 -12 -43 -12 -92 0 -78 0 -80 17 -56 32 46 28 181
-5 148z"/>
<path d="M834 4380 c-41 -16 -39 -32 2 -28 27 2 40 8 42 21 4 18 -10 21 -44 7z"/>
<path d="M3628 4384 c-11 -17 -38 -118 -38 -138 1 -21 1 -21 16 -1 9 11 24 37
35 58 17 33 18 40 6 64 -8 14 -16 22 -19 17z"/>
<path d="M431 4354 c-11 -24 -8 -32 29 -88 39 -58 41 -59 35 -26 -10 54 -38
140 -45 140 -4 0 -12 -12 -19 -26z"/>
<path d="M3430 4254 c0 -117 14 -154 24 -63 10 96 7 135 -9 149 -13 11 -15 0
-15 -86z"/>
<path d="M785 4330 c-3 -5 -1 -10 4 -10 6 0 11 5 11 10 0 6 -2 10 -4 10 -3 0
-8 -4 -11 -10z"/>
<path d="M630 4315 c-12 -14 -5 -157 8 -179 11 -19 21 30 21 106 1 78 -7 99
-29 73z"/>
<path d="M750 4265 l-23 -24 34 9 c19 6 35 10 36 10 2 0 3 7 3 15 0 23 -24 18
-50 -10z"/>
<path d="M3310 4278 c0 -9 7 -19 16 -22 25 -10 27 -1 4 19 -17 15 -20 16 -20
3z"/>
<path d="M3630 4240 c-23 -36 -35 -67 -38 -103 l-5 -52 47 67 c45 65 55 99 37
126 -6 10 -17 -1 -41 -38z"/>
<path d="M406 4264 c-12 -31 -5 -51 39 -114 l45 -64 0 38 c0 24 -12 61 -31 97
-33 62 -43 70 -53 43z"/>
<path d="M3476 4209 c-8 -82 -8 -144 1 -153 4 -4 15 28 25 71 15 71 15 81 1
110 -8 18 -16 33 -18 33 -1 0 -5 -28 -9 -61z"/>
<path d="M3533 4230 c18 -33 23 -36 25 -19 2 11 -4 29 -14 40 -28 32 -34 22
-11 -21z"/>
<path d="M536 4241 c-10 -11 -16 -29 -14 -42 3 -19 6 -16 26 20 24 43 18 55
-12 22z"/>
<path d="M582 4235 c-16 -34 -15 -54 5 -133 16 -64 17 -66 24 -34 6 30 -5 179
-14 188 -2 2 -9 -7 -15 -21z"/>
<path d="M756 4226 c-21 -6 -45 -21 -53 -33 l-15 -23 48 17 c54 17 68 27 63
41 -3 5 -19 5 -43 -2z"/>
<path d="M3310 4220 c0 -12 12 -21 40 -28 43 -11 50 -4 23 20 -29 25 -63 29
-63 8z"/>
<path d="M3660 4152 c-43 -64 -59 -96 -60 -121 0 -22 3 -21 38 19 62 72 65 79
56 111 l-9 29 -25 -38z"/>
<path d="M386 4156 c-8 -31 -6 -35 47 -99 51 -62 71 -50 33 20 -15 26 -37 61
-50 76 l-23 29 -7 -26z"/>
<path d="M739 4165 c-42 -14 -88 -49 -77 -60 9 -10 138 47 138 61 0 17 -2 17
-61 -1z"/>
<path d="M3312 4164 c2 -9 25 -25 53 -35 59 -22 66 -23 59 -6 -6 16 -50 42
-87 51 -23 6 -28 4 -25 -10z"/>
<path d="M532 4145 c-19 -41 -13 -106 12 -155 l24 -45 7 37 c6 31 -18 188 -29
188 -2 0 -8 -11 -14 -25z"/>
<path d="M3516 4093 c-15 -72 -14 -123 3 -123 12 0 51 89 51 116 0 22 -25 84
-34 84 -2 0 -11 -35 -20 -77z"/>
<path d="M711 4092 c-35 -15 -70 -37 -79 -50 -14 -22 -14 -22 9 -13 72 28 136
61 148 75 20 24 -2 21 -78 -12z"/>
<path d="M3310 4110 c0 -11 140 -83 147 -76 12 12 -17 38 -66 60 -63 28 -81
32 -81 16z"/>
<path d="M695 4025 c-66 -33 -101 -56 -104 -69 -2 -16 12 -11 85 29 83 44 134
80 123 88 -2 1 -49 -20 -104 -48z"/>
<path d="M394 4050 c13 -42 55 -123 81 -155 l25 -30 0 28 c0 37 -20 74 -71
133 -32 37 -40 43 -35 24z"/>
<path d="M3312 4058 c4 -13 164 -107 182 -108 5 0 2 10 -6 22 -9 13 -49 40
-89 60 -82 41 -93 44 -87 26z"/>
<path d="M3641 4018 c-42 -57 -61 -96 -61 -130 0 -30 72 75 93 135 9 26 14 47
12 47 -3 0 -22 -24 -44 -52z"/>
<path d="M765 4008 c-16 -10 -65 -37 -107 -58 -42 -22 -79 -44 -82 -49 -12
-19 160 58 194 87 41 35 38 48 -5 20z"/>
<path d="M3310 4004 c0 -10 28 -28 78 -50 42 -19 91 -41 107 -50 30 -15 30
-15 10 4 -11 10 -59 40 -107 66 -67 35 -88 42 -88 30z"/>
<path d="M3557 3978 c-19 -42 -21 -76 -7 -98 7 -11 10 -7 10 18 0 18 5 42 11
53 5 11 8 30 6 42 -3 19 -6 17 -20 -15z"/>
<path d="M505 3973 c4 -16 9 -48 12 -72 4 -30 8 -39 14 -30 12 20 11 74 -3
104 -15 34 -32 32 -23 -2z"/>
<path d="M770 3955 c-10 -13 -9 -15 9 -15 12 0 21 6 21 15 0 8 -4 15 -9 15 -5
0 -14 -7 -21 -15z"/>
<path d="M320 3893 c-26 -33 -21 -79 11 -105 22 -19 56 -23 74 -10 19 13 45
61 45 82 0 59 -91 82 -130 33z"/>
<path d="M725 3901 c27 -12 44 -15 52 -8 22 16 4 27 -45 27 l-47 -1 40 -18z"/>
<path d="M3310 3911 c0 -17 14 -19 45 -5 l30 13 -37 1 c-21 0 -38 -4 -38 -9z"/>
<path d="M3648 3903 c-27 -32 -28 -52 -5 -87 37 -58 94 -61 122 -5 28 54 -5
109 -65 109 -23 0 -43 -7 -52 -17z"/>
<path d="M3370 3888 l-25 -10 30 -9 c22 -6 36 -4 60 11 l30 20 -35 -1 c-19 0
-46 -5 -60 -11z"/>
<path d="M119 3856 c-15 -37 -15 -41 5 -71 25 -39 29 -29 18 50 l-7 60 -16
-39z"/>
<path d="M166 3844 c4 -27 8 -50 9 -51 1 -2 6 13 12 31 9 30 8 37 -8 52 -19
17 -19 16 -13 -32z"/>
<path d="M651 3871 c23 -19 27 -19 64 -6 l20 7 -20 8 c-11 5 -35 9 -54 9 l-33
1 23 -19z"/>
<path d="M3891 3876 c-9 -11 -8 -22 3 -48 l14 -33 1 48 c1 51 -1 54 -18 33z"/>
<path d="M3935 3838 c-9 -74 -4 -86 19 -43 18 33 18 38 4 68 l-16 32 -7 -57z"/>
<path d="M3465 3870 c-16 -7 -12 -9 18 -9 23 -1 36 3 32 9 -7 12 -23 12 -50 0z"/>
<path d="M570 3860 c0 -5 17 -10 38 -9 30 0 33 2 17 9 -28 12 -55 12 -55 0z"/>
<path d="M480 3827 c-13 -7 -30 -23 -37 -37 -10 -20 -9 -27 4 -42 15 -17 18
-16 50 12 19 17 45 30 61 30 26 0 26 0 7 19 -28 27 -56 33 -85 18z"/>
<path d="M3524 3816 l-29 -25 28 -1 c18 0 40 -11 59 -30 24 -24 33 -28 44 -19
33 27 7 81 -47 94 -20 5 -33 0 -55 -19z"/>
<path d="M3844 3826 c-3 -8 8 -51 24 -97 l29 -83 7 46 c6 37 3 54 -14 84 -11
22 -20 44 -20 51 0 17 -19 16 -26 -1z"/>
<path d="M193 3781 c-23 -48 -31 -115 -14 -125 4 -3 14 14 21 37 7 23 20 58
31 78 13 27 15 39 6 48 -17 17 -20 14 -44 -38z"/>
<path d="M3798 3762 c-20 -33 -12 -60 54 -180 l46 -84 4 44 c3 29 -1 53 -13
73 -9 17 -27 60 -39 97 -12 37 -25 70 -29 72 -4 3 -14 -7 -23 -22z"/>
<path d="M3958 3755 c-14 -22 -27 -58 -30 -79 l-4 -39 38 44 c38 45 43 59 29
94 -7 17 -11 15 -33 -20z"/>
<path d="M87 3773 c-17 -16 -4 -61 28 -98 l35 -40 0 32 c0 18 -11 49 -26 70
-31 46 -29 44 -37 36z"/>
<path d="M257 3773 c-4 -6 -18 -43 -33 -84 -15 -41 -33 -83 -40 -95 -10 -15
-12 -32 -7 -58 l8 -36 52 92 c63 113 69 135 44 167 -10 13 -21 19 -24 14z"/>
<path d="M513 3755 c-54 -38 -23 -134 44 -135 35 0 53 11 69 42 37 72 -45 141
-113 93z"/>
<path d="M3460 3743 c-26 -33 -21 -79 11 -105 47 -39 119 -4 119 58 0 71 -86
103 -130 47z"/>
<path d="M344 3733 c-9 -10 -45 -72 -82 -138 -53 -97 -66 -131 -70 -175 -3
-36 -1 -52 6 -45 21 21 132 220 132 236 0 14 9 17 53 15 65 -2 77 7 77 55 0
28 -6 42 -22 53 -30 21 -74 20 -94 -1z"/>
<path d="M3638 3733 c-24 -27 -29 -55 -15 -83 11 -22 18 -24 67 -23 54 1 54 0
72 -39 10 -22 42 -79 71 -127 l52 -86 3 42 c3 37 -7 61 -64 170 -37 69 -75
134 -86 145 -23 23 -80 24 -100 1z"/>
<path d="M786 3722 c-6 -10 3 -254 10 -261 2 -2 4 57 4 132 0 130 -2 148 -14
129z"/>
<path d="M743 3689 c-15 -15 -17 -183 -4 -259 l8 -45 12 29 c17 42 2 293 -16
275z"/>
<path d="M3320 3563 c0 -201 25 -223 37 -32 7 110 -1 169 -22 169 -12 0 -15
-24 -15 -137z"/>
<path d="M3972 3658 c-31 -46 -57 -131 -50 -165 3 -13 18 3 51 53 43 67 46 74
39 115 l-8 44 -32 -47z"/>
<path d="M64 3654 c-5 -28 -1 -46 16 -77 31 -55 71 -109 78 -103 13 13 -22
134 -51 173 -17 24 -32 43 -33 43 -2 0 -6 -16 -10 -36z"/>
<path d="M675 3628 c-26 -31 -27 -35 -21 -117 8 -107 27 -221 36 -221 4 0 13
13 20 30 9 23 10 59 0 170 -7 77 -9 147 -6 155 8 23 0 18 -29 -17z"/>
<path d="M3380 3577 c0 -46 -5 -110 -11 -142 -9 -49 -8 -65 7 -104 l18 -46 12
49 c15 57 29 255 20 282 -3 10 -15 25 -26 32 -19 12 -20 10 -20 -71z"/>
<path d="M346 3588 c-9 -12 -16 -27 -16 -33 0 -6 -21 -44 -46 -85 -75 -122
-86 -147 -78 -185 3 -19 9 -35 13 -35 7 0 135 214 145 244 4 10 9 16 12 13 3
-3 17 -2 30 3 22 9 24 7 24 -25 0 -38 28 -65 67 -65 20 0 23 -5 23 -39 0 -21
7 -58 15 -81 8 -23 15 -68 15 -99 0 -76 8 -105 26 -90 25 21 27 90 4 189 -17
68 -21 109 -16 152 5 54 4 61 -19 84 -26 26 -54 30 -86 14 -16 -9 -19 -7 -19
8 0 24 -31 52 -58 52 -11 0 -28 -10 -36 -22z"/>
<path d="M3656 3594 c-9 -8 -16 -24 -16 -35 0 -17 -3 -18 -20 -9 -36 19 -72 8
-97 -29 -16 -23 -23 -28 -23 -16 0 9 -8 33 -17 53 -17 35 -17 36 -24 12 -4
-14 -7 -50 -8 -80 0 -30 -9 -92 -18 -137 -17 -81 -17 -84 4 -125 l20 -43 7 35
c30 157 51 239 58 225 5 -9 1 -49 -12 -101 -23 -99 -26 -192 -7 -219 19 -26
28 -7 28 62 0 32 9 91 19 131 11 40 17 79 14 87 -5 11 1 15 20 15 39 0 69 35
64 74 -3 31 -3 32 20 20 14 -7 30 -11 36 -8 6 2 19 -13 28 -34 9 -20 42 -79
72 -131 58 -98 70 -102 70 -25 0 29 -110 235 -148 277 -20 21 -50 22 -70 1z"/>
<path d="M605 3556 c-29 -43 -32 -136 -6 -236 12 -46 21 -98 21 -114 l0 -31
20 30 c22 34 25 72 10 154 -5 31 -13 94 -17 141 l-8 85 -20 -29z"/>
<path d="M3993 3533 c-17 -26 -43 -59 -57 -72 -21 -20 -26 -34 -26 -70 l1 -46
39 43 c64 71 92 126 83 163 l-8 31 -32 -49z"/>
<path d="M45 3539 c-5 -24 0 -41 26 -85 19 -30 48 -69 66 -86 l33 -32 0 45 c0
36 -5 51 -26 70 -14 13 -40 45 -57 72 -16 26 -32 47 -33 47 -1 0 -5 -14 -9
-31z"/>
<path d="M17 3469 c-17 -61 -11 -71 137 -236 21 -23 42 -40 46 -38 20 12 -25
103 -81 163 -33 34 -67 79 -77 99 -18 35 -19 35 -25 12z"/>
<path d="M4026 3450 c-16 -25 -50 -67 -76 -95 -43 -46 -89 -139 -75 -153 8 -8
51 35 108 108 29 36 60 72 70 80 14 12 16 23 9 60 l-8 45 -28 -45z"/>
<path d="M3690 3459 c0 -10 16 -66 42 -149 6 -19 31 -73 56 -119 l45 -83 13
30 c17 41 6 76 -55 182 -26 47 -57 100 -67 117 -19 33 -34 43 -34 22z"/>
<path d="M318 3362 c-31 -53 -67 -119 -78 -145 -20 -44 -20 -52 -7 -84 l14
-36 51 96 c29 52 58 123 66 158 8 34 19 66 25 72 10 10 4 37 -8 37 -3 -1 -32
-44 -63 -98z"/>
<path d="M771 3378 l-23 -43 26 28 c14 15 26 35 26 43 0 22 -4 17 -29 -28z"/>
<path d="M397 3394 c-3 -11 -8 -35 -12 -54 -4 -19 -36 -93 -71 -165 -62 -123
-65 -132 -53 -164 l12 -34 83 168 c46 92 84 176 84 186 0 10 -9 33 -19 50 -16
26 -20 28 -24 13z"/>
<path d="M3656 3379 c-23 -38 -16 -59 80 -247 72 -142 73 -143 82 -110 10 38
0 67 -72 203 -25 46 -48 105 -51 130 -9 57 -17 62 -39 24z"/>
<path d="M477 3352 c-13 -15 -15 -25 -7 -52 5 -18 7 -50 4 -69 -4 -24 1 -51
14 -81 10 -25 22 -63 26 -85 6 -31 10 -36 17 -23 11 20 -5 214 -24 281 -13 46
-14 47 -30 29z"/>
<path d="M3575 3317 c-9 -28 -17 -74 -16 -102 0 -27 -4 -66 -9 -85 -5 -20 -6
-48 -2 -64 7 -27 10 -22 34 55 31 98 44 235 23 243 -9 3 -19 -12 -30 -47z"/>
<path d="M4020 3319 c-24 -29 -67 -79 -96 -110 -47 -50 -74 -104 -74 -147 0
-23 81 51 152 140 64 81 69 90 66 130 l-3 42 -45 -55z"/>
<path d="M0 3333 c0 -38 17 -67 87 -154 64 -79 143 -149 143 -127 0 44 -27 96
-78 152 -32 33 -75 82 -96 109 -44 54 -56 58 -56 20z"/>
<path d="M761 3318 c-37 -25 -78 -74 -69 -83 3 -3 24 1 46 10 27 11 44 26 52
45 19 45 9 54 -29 28z"/>
<path d="M3320 3297 c0 -28 5 -35 33 -45 18 -7 36 -12 40 -12 12 0 -35 70 -54
81 -17 9 -19 6 -19 -24z"/>
<path d="M6520 3304 c-111 -22 -158 -57 -202 -149 -15 -33 -28 -65 -28 -71 0
-18 83 -26 93 -8 12 22 62 44 101 44 19 0 110 -18 202 -41 133 -33 180 -40
234 -37 118 6 206 72 243 182 l15 45 -43 6 c-37 6 -48 3 -85 -24 -24 -17 -55
-31 -69 -31 -28 0 -138 29 -233 61 -59 19 -182 32 -228 23z"/>
<path d="M3630 3239 c0 -31 -7 -73 -16 -94 -20 -50 -37 -141 -29 -165 8 -26
25 -26 25 0 0 11 11 48 25 82 29 70 33 148 10 199 l-14 34 -1 -56z"/>
<path d="M433 3247 c-20 -43 -16 -105 13 -192 15 -44 29 -87 31 -95 4 -12 6
-12 15 4 13 23 3 106 -19 155 -8 20 -18 63 -22 96 -6 57 -6 58 -18 32z"/>
<path d="M723 3215 c-52 -24 -76 -41 -87 -64 l-16 -30 38 13 c94 33 147 71
140 99 -2 11 -19 7 -75 -18z"/>
<path d="M3320 3215 c0 -17 9 -29 31 -41 50 -25 109 -44 109 -34 0 20 -57 68
-97 84 l-43 16 0 -25z"/>
<path d="M4000 3164 c-19 -25 -63 -70 -98 -101 -53 -47 -92 -96 -92 -118 0 -9
82 46 118 79 42 38 97 122 106 159 3 15 5 27 4 27 -2 -1 -19 -21 -38 -46z"/>
<path d="M43 3172 c7 -35 67 -121 113 -163 38 -33 114 -81 114 -72 0 20 -43
74 -90 114 -29 24 -73 69 -98 99 -44 53 -45 54 -39 22z"/>
<path d="M3681 3179 c-1 -3 5 -28 13 -55 8 -27 17 -69 21 -94 4 -25 13 -52 20
-60 8 -8 19 -29 26 -45 l12 -30 10 33 c9 29 4 43 -46 145 -30 61 -56 109 -56
106z"/>
<path d="M341 3060 c-40 -81 -52 -116 -47 -135 6 -25 26 -35 26 -14 0 6 8 23
19 37 10 15 22 47 25 72 4 25 14 67 23 93 8 27 13 50 11 53 -3 2 -28 -45 -57
-106z"/>
<path d="M776 3161 c-3 -4 -34 -19 -68 -31 -93 -34 -136 -58 -148 -81 -7 -11
-10 -22 -8 -24 7 -7 211 74 229 91 11 10 19 25 19 36 0 19 -15 25 -24 9z"/>
<path d="M3322 3134 c3 -23 15 -31 109 -68 88 -35 105 -39 102 -25 -8 29 -36
48 -124 84 -46 19 -85 35 -87 35 -2 0 -2 -12 0 -26z"/>
<path d="M3652 3044 c-14 -36 -22 -74 -21 -112 0 -40 3 -51 8 -37 5 11 18 29
30 39 17 16 21 31 21 80 0 86 -11 95 -38 30z"/>
<path d="M397 3076 c-4 -10 -7 -41 -7 -70 0 -43 5 -58 25 -80 14 -15 25 -37
26 -49 0 -21 1 -21 10 3 13 32 -2 124 -29 176 -15 29 -20 33 -25 20z"/>
<path d="M700 3053 c-114 -45 -168 -74 -185 -100 -8 -12 -15 -24 -15 -25 0 -6
274 132 284 142 20 20 -1 15 -84 -17z"/>
<path d="M3320 3072 c0 -9 252 -133 258 -127 13 13 -71 68 -151 99 -97 38
-107 41 -107 28z"/>
<path d="M639 2970 c-134 -66 -179 -102 -179 -141 0 -17 3 -16 36 6 20 14 41
25 46 25 16 0 141 87 193 135 27 25 47 44 45 44 -3 -1 -66 -32 -141 -69z"/>
<path d="M3364 2995 c53 -51 105 -87 198 -138 l67 -36 -10 27 c-20 53 -36 64
-212 149 l-88 42 45 -44z"/>
<path d="M3939 3004 c-7 -9 -36 -31 -65 -49 -51 -33 -94 -81 -108 -119 -7 -20
-7 -20 16 -1 26 22 178 177 178 182 0 7 -8 2 -21 -13z"/>
<path d="M120 3007 c0 -11 192 -199 197 -193 11 11 -48 87 -88 114 -22 15 -56
40 -75 56 -19 15 -34 26 -34 23z"/>
<path d="M3702 2937 c-10 -18 -8 -30 12 -69 22 -44 24 -46 30 -23 7 28 -1 72
-19 97 -11 17 -13 16 -23 -5z"/>
<path d="M346 2910 c-10 -26 -15 -54 -11 -71 9 -39 25 -47 25 -12 0 16 7 38
15 49 18 24 18 35 2 58 -13 17 -15 15 -31 -24z"/>
<path d="M5256 2939 c-170 -23 -296 -78 -371 -161 -112 -124 -160 -325 -120
-496 42 -179 106 -225 441 -318 188 -53 224 -75 224 -134 0 -100 -72 -107
-474 -45 -88 14 -161 24 -162 22 -5 -4 -75 -390 -71 -393 5 -5 203 -42 290
-53 111 -15 286 -13 392 4 230 37 371 127 450 289 68 137 79 266 34 398 -52
155 -126 203 -459 303 -85 25 -165 53 -178 61 -56 36 -44 116 21 147 66 31
247 18 447 -33 41 -10 76 -18 77 -16 5 5 71 371 68 374 -2 2 -56 14 -122 28
-135 28 -373 39 -487 23z"/>
<path d="M8110 2931 c-98 -27 -239 -87 -298 -128 -92 -63 -185 -181 -242 -306
-63 -140 -79 -380 -36 -549 74 -293 267 -486 564 -566 87 -23 115 -26 267 -26
152 0 180 3 267 27 301 80 473 245 549 522 30 113 37 304 14 416 -42 213 -178
408 -348 503 -80 45 -218 91 -331 111 -122 21 -322 19 -406 -4z m356 -358 c60
-20 141 -98 179 -172 65 -130 90 -363 51 -475 -51 -141 -166 -221 -321 -220
-220 0 -365 200 -365 504 0 65 6 126 15 156 27 91 110 184 190 212 49 17 195
14 251 -5z"/>
<path d="M15790 2935 c-75 -19 -220 -77 -277 -111 -162 -95 -286 -290 -325
-510 -18 -105 -19 -131 -10 -225 34 -328 210 -570 492 -675 283 -106 654 -74
884 76 140 92 222 197 275 356 43 129 54 209 48 343 -6 140 -23 208 -81 326
-106 216 -268 338 -539 406 -108 27 -384 36 -467 14z m365 -370 c57 -28 127
-101 158 -165 49 -100 70 -208 65 -339 -3 -93 -8 -126 -26 -166 -44 -97 -131
-162 -249 -185 -105 -21 -220 17 -293 96 -131 143 -177 432 -96 610 29 62 93
129 149 155 58 27 232 23 292 -6z"/>
<path d="M11247 2167 c-158 -424 -287 -775 -287 -779 0 -5 108 -8 240 -8 184
0 242 3 245 13 2 6 23 72 46 145 l41 132 240 -2 241 -3 41 -140 42 -140 262
-3 262 -2 -11 27 c-6 16 -128 348 -270 738 -143 391 -267 729 -276 753 l-16
42 -256 0 -256 0 -288 -773z m609 50 l70 -222 -149 -3 c-83 -1 -151 -1 -153 1
-7 6 149 457 155 451 3 -3 38 -105 77 -227z"/>
<path d="M6210 2163 c-156 -417 -285 -764 -288 -770 -3 -10 48 -13 236 -13
l240 0 47 145 46 145 236 -2 235 -3 43 -140 42 -140 257 -3 c141 -1 256 -1
256 1 0 4 -498 1368 -536 1470 l-26 67 -252 0 -253 0 -283 -757z m593 67 c35
-113 68 -215 71 -227 l7 -23 -155 0 -156 0 75 218 c89 258 85 246 89 241 2 -2
33 -96 69 -209z"/>
<path d="M9790 2151 l0 -771 245 0 245 0 0 248 0 249 168 6 c355 13 529 90
616 270 75 154 75 322 1 484 -61 133 -157 205 -340 255 -76 21 -104 22 -507
26 l-428 3 0 -770z m752 411 c44 -28 88 -109 88 -164 0 -80 -49 -149 -116
-166 -22 -6 -83 -13 -136 -17 l-98 -7 0 192 0 193 113 -5 c95 -3 119 -8 149
-26z"/>
<path d="M12630 2393 c0 -631 8 -709 82 -819 109 -161 433 -252 771 -215 246
27 416 117 481 254 53 113 58 176 64 765 l4 542 -226 0 -226 0 0 -523 c0 -433
-3 -532 -15 -573 -26 -90 -87 -124 -217 -124 -123 1 -177 29 -215 115 -16 36
-18 90 -21 573 l-4 532 -239 0 -239 0 0 -527z"/>
<path d="M14230 2150 l0 -770 495 0 495 0 -2 183 -3 182 -252 3 -253 2 0 585
0 585 -240 0 -240 0 0 -770z"/>
<path d="M398 2868 c-22 -34 -23 -68 -3 -68 20 0 27 20 23 61 l-3 33 -17 -26z"/>
<path d="M3660 2873 c0 -34 12 -63 26 -63 16 0 18 33 4 61 -13 24 -30 25 -30
2z"/>
<path d="M184 2817 c-55 -48 -25 -127 47 -127 29 0 42 6 58 26 24 30 26 43 10
77 -11 24 -47 47 -74 47 -8 0 -26 -11 -41 -23z"/>
<path d="M3810 2827 c-14 -7 -28 -26 -34 -45 -13 -47 17 -86 68 -90 50 -4 76
19 76 69 0 29 -6 42 -26 58 -31 24 -49 26 -84 8z"/>
<path d="M462 2784 c-29 -20 -28 -30 7 -60 16 -13 32 -35 35 -49 13 -53 80
-11 80 50 0 64 -68 97 -122 59z"/>
<path d="M787 2793 c-11 -10 -8 -83 3 -83 6 0 10 20 10 45 0 46 -2 50 -13 38z"/>
<path d="M3515 2775 c-14 -13 -25 -36 -25 -50 0 -28 40 -75 65 -75 8 0 15 7
15 16 0 9 16 32 35 51 27 27 33 39 25 53 -20 38 -80 41 -115 5z"/>
<path d="M3326 2710 c-14 -134 -26 -283 -23 -286 6 -6 57 211 57 243 0 17 -6
46 -14 64 l-14 33 -6 -54z"/>
<path d="M736 2706 c-18 -41 -19 -35 19 -191 25 -101 26 -104 35 -80 16 38 11
153 -9 212 -11 32 -22 67 -24 78 -3 16 -7 12 -21 -19z"/>
<path d="M385 2720 c-54 -21 -61 -97 -13 -133 l28 -21 27 26 c16 14 36 28 46
31 24 9 21 41 -5 71 -27 29 -55 38 -83 26z"/>
<path d="M3640 2718 c-31 -11 -49 -37 -50 -70 0 -21 5 -28 19 -28 11 0 28 -11
39 -25 24 -30 32 -31 66 -4 18 14 26 30 26 53 0 60 -46 94 -100 74z"/>
<path d="M3962 2700 c-20 -27 -33 -115 -15 -96 7 6 43 126 38 126 0 0 -11 -13
-23 -30z"/>
<path d="M93 2708 c2 -7 13 -40 23 -73 l18 -60 4 38 c2 26 -4 49 -18 72 -21
34 -37 47 -27 23z"/>
<path d="M3990 2653 c-7 -27 -18 -54 -24 -62 -7 -9 -1 -8 17 3 23 15 27 25 27
62 0 24 -2 44 -4 44 -2 0 -9 -21 -16 -47z"/>
<path d="M71 2648 c-1 -37 3 -50 18 -58 21 -11 21 -10 -12 90 -3 8 -6 -6 -6
-32z"/>
<path d="M3899 2648 c-12 -10 -18 -38 -23 -110 -4 -58 -3 -98 3 -98 19 0 46
113 41 168 -4 47 -7 52 -21 40z"/>
<path d="M158 2592 c-4 -42 0 -71 15 -110 11 -29 23 -49 27 -45 4 4 5 50 2
101 -4 75 -8 94 -22 102 -16 8 -18 3 -22 -48z"/>
<path d="M3357 2537 c-15 -62 -27 -128 -27 -145 0 -29 2 -32 19 -23 24 13 29
27 51 141 17 84 17 98 4 118 -8 12 -16 22 -17 22 -1 0 -15 -51 -30 -113z"/>
<path d="M683 2629 c-17 -17 -16 -36 3 -143 13 -70 23 -95 45 -120 l28 -31 1
30 c0 37 -22 140 -47 218 -14 47 -20 56 -30 46z"/>
<path d="M3813 2608 c-27 -13 -30 -55 -11 -184 l12 -82 18 24 c15 18 20 46 23
139 5 122 3 125 -42 103z"/>
<path d="M224 2496 c3 -89 8 -120 22 -142 l19 -28 15 105 c9 57 14 116 12 130
-4 24 -35 49 -62 49 -6 0 -8 -47 -6 -114z"/>
<path d="M445 2576 c-30 -45 13 -98 66 -81 55 18 38 105 -21 105 -20 0 -35 -8
-45 -24z"/>
<path d="M3544 2575 c-34 -52 31 -111 76 -70 22 20 26 65 8 83 -21 21 -66 14
-84 -13z"/>
<path d="M4045 2552 c-8 -49 -9 -50 -88 -101 -61 -39 -138 -124 -124 -137 2
-2 45 23 96 56 74 48 91 64 91 84 0 14 11 33 25 44 17 14 25 30 25 50 0 45
-17 48 -25 4z"/>
<path d="M60 2544 c0 -35 4 -41 43 -64 23 -14 45 -26 49 -28 22 -10 -23 70
-54 97 l-38 33 0 -38z"/>
<path d="M3967 2550 c-26 -28 -52 -79 -44 -87 9 -9 96 53 97 69 0 21 -10 48
-19 48 -3 -1 -18 -14 -34 -30z"/>
<path d="M3735 2544 c-16 -25 -16 -33 1 -165 10 -77 21 -139 25 -139 11 0 29
51 29 84 0 34 -29 238 -34 244 -2 1 -11 -9 -21 -24z"/>
<path d="M307 2462 c-21 -128 -21 -175 0 -215 l18 -32 3 30 c1 17 9 73 17 126
19 124 19 142 -3 169 -18 23 -19 22 -35 -78z"/>
<path d="M557 2548 c-6 -18 11 -48 27 -48 20 0 37 25 30 44 -7 19 -50 22 -57
4z"/>
<path d="M3463 2544 c-8 -21 19 -46 40 -38 9 3 17 17 17 30 0 19 -5 24 -25 24
-14 0 -28 -7 -32 -16z"/>
<path d="M636 2485 c-17 -34 -17 -45 -7 -84 7 -25 27 -70 46 -101 19 -31 39
-69 46 -85 12 -29 12 -29 21 34 9 63 8 65 -23 97 -24 24 -36 51 -48 105 l-17
73 -18 -39z"/>
<path d="M3426 2512 c-3 -5 -8 -29 -12 -53 -8 -53 -19 -76 -51 -110 -23 -25
-24 -31 -18 -95 l8 -68 16 39 c9 22 28 60 43 85 37 61 48 95 48 138 -1 37 -23
81 -34 64z"/>
<path d="M367 2371 c-25 -181 -24 -200 17 -246 l33 -39 8 104 c13 177 9 248
-18 279 l-23 27 -17 -125z"/>
<path d="M3675 2481 c-24 -27 -35 -115 -23 -185 5 -28 9 -86 10 -129 1 -42 2
-76 4 -75 43 45 64 85 64 128 0 37 -17 178 -33 269 -1 9 -8 7 -22 -8z"/>
<path d="M60 2447 c1 -29 8 -37 92 -89 50 -32 93 -56 96 -54 12 13 -64 96
-122 133 l-66 42 0 -32z"/>
<path d="M512 2464 c-49 -34 -6 -123 47 -94 46 24 47 75 1 100 -24 13 -21 13
-48 -6z"/>
<path d="M3513 2470 c-43 -18 -41 -78 3 -99 59 -26 104 57 52 93 -25 18 -25
18 -55 6z"/>
<path d="M3606 2401 c-30 -33 -36 -80 -29 -243 l6 -159 30 28 29 28 -7 120
c-4 66 -8 148 -9 183 0 34 -1 62 -2 62 0 0 -8 -8 -18 -19z"/>
<path d="M456 2337 c-3 -39 -9 -120 -12 -178 l-6 -106 29 -33 30 -34 7 170 c8
173 5 192 -25 231 -16 22 -17 21 -23 -50z"/>
<path d="M791 2353 c-7 -27 -14 -57 -17 -68 -4 -16 0 -15 20 8 19 20 26 39 26
68 0 53 -15 49 -29 -8z"/>
<path d="M3957 2359 c-32 -22 -77 -49 -102 -60 -29 -13 -51 -31 -61 -51 l-16
-31 29 7 c15 4 44 17 63 30 19 13 55 32 80 43 38 16 48 27 58 58 6 22 10 40 8
42 -1 2 -28 -15 -59 -38z"/>
<path d="M60 2380 c0 -33 30 -78 61 -90 19 -7 54 -25 79 -41 25 -15 58 -31 73
-35 l29 -7 -16 31 c-10 20 -32 38 -60 51 -25 10 -72 38 -105 60 -34 23 -61 37
-61 31z"/>
<path d="M3471 2380 c-1 -8 -17 -41 -36 -72 -18 -32 -41 -79 -50 -105 -16 -46
-28 -123 -19 -123 2 0 19 30 38 68 19 37 46 82 60 101 17 23 26 47 25 70 0 37
-17 90 -18 61z"/>
<path d="M596 2335 c-7 -43 -5 -52 22 -89 16 -22 45 -70 63 -106 30 -59 34
-62 37 -37 4 36 -23 120 -58 177 -15 25 -34 58 -43 74 l-14 29 -7 -48z"/>
<path d="M3280 2337 c0 -13 9 -32 19 -41 19 -17 19 -17 9 23 -11 45 -28 55
-28 18z"/>
<path d="M3527 2319 c-20 -30 -36 -172 -37 -319 l0 -95 33 33 c30 31 32 37 35
115 2 45 -1 129 -5 187 -8 104 -8 105 -26 79z"/>
<path d="M526 2180 c-8 -187 -3 -223 38 -255 17 -13 31 -23 33 -22 4 5 -16
343 -23 375 -4 18 -14 37 -24 42 -16 8 -18 -3 -24 -140z"/>
<path d="M802 2266 c-30 -35 -57 -97 -50 -118 2 -6 23 7 46 29 36 34 42 46 42
81 0 23 -2 42 -4 42 -2 0 -17 -15 -34 -34z"/>
<path d="M3270 2288 c0 -2 -4 -17 -9 -34 -8 -29 -5 -35 34 -74 l43 -42 -9 47
c-5 26 -20 60 -34 77 -14 16 -25 28 -25 26z"/>
<path d="M3939 2266 c-24 -13 -62 -33 -84 -45 -21 -11 -47 -21 -56 -21 -20 0
-93 -83 -78 -88 12 -5 128 33 184 59 60 28 85 55 85 89 0 17 -1 30 -3 30 -2 0
-23 -11 -48 -24z"/>
<path d="M85 2248 c4 -18 11 -38 16 -44 21 -26 234 -111 258 -102 15 5 -58 88
-78 88 -9 0 -35 10 -56 21 -81 44 -130 68 -138 69 -5 0 -5 -15 -2 -32z"/>
<path d="M3422 2134 c-60 -110 -68 -136 -17 -50 47 77 77 137 72 142 -2 2 -27
-39 -55 -92z"/>
<path d="M606 2205 c10 -30 106 -186 112 -181 2 3 -5 17 -16 33 -11 15 -31 51
-45 78 -14 28 -33 59 -41 70 l-16 20 6 -20z"/>
<path d="M803 2148 c-41 -42 -54 -62 -59 -97 l-7 -44 66 72 c44 48 67 81 67
97 0 13 -4 24 -8 24 -4 0 -31 -24 -59 -52z"/>
<path d="M3235 2170 c-5 -15 8 -36 51 -85 32 -36 58 -65 59 -65 1 0 -1 20 -5
46 -5 34 -17 55 -46 85 -44 45 -50 47 -59 19z"/>
<path d="M3915 2153 c-27 -15 -92 -39 -144 -54 -76 -22 -98 -34 -121 -61 -27
-31 -27 -33 -8 -36 48 -8 245 58 290 97 7 6 40 81 36 81 -2 -1 -25 -13 -53
-27z"/>
<path d="M110 2163 c0 -2 9 -20 19 -41 24 -46 111 -92 222 -117 103 -23 115
-19 79 23 -23 27 -45 39 -121 61 -52 15 -118 39 -146 53 -29 14 -53 23 -53 21z"/>
<path d="M820 2063 c-68 -79 -89 -110 -90 -131 0 -16 158 137 166 160 3 10 2
24 -3 32 -6 11 -24 -4 -73 -61z"/>
<path d="M3446 2107 c-14 -24 -20 -58 -24 -139 -5 -108 1 -126 29 -92 8 9 14
55 17 122 6 138 3 152 -22 109z"/>
<path d="M616 2003 c5 -106 10 -131 25 -148 19 -19 19 -17 19 94 0 98 -3 118
-21 147 -11 19 -23 34 -25 34 -2 0 -1 -57 2 -127z"/>
<path d="M3217 2114 c-17 -17 -2 -42 68 -115 41 -42 75 -73 75 -67 0 34 -128
197 -143 182z"/>
<path d="M832 1987 c-50 -50 -86 -95 -91 -115 -6 -20 -6 -32 0 -32 5 0 9 4 9
9 0 5 35 49 78 98 65 73 101 123 89 123 -1 0 -39 -37 -85 -83z"/>
<path d="M3190 2040 c0 -5 26 -38 59 -72 32 -35 68 -79 80 -98 18 -31 21 -32
21 -12 0 35 -17 61 -83 130 -60 60 -77 72 -77 52z"/>
<path d="M3840 2025 c-26 -14 -132 -39 -208 -51 -24 -3 -55 -17 -70 -30 l-27
-23 64 -1 c35 0 93 5 128 12 54 10 67 16 79 39 7 15 22 30 33 34 20 6 50 36
35 34 -5 0 -20 -7 -34 -14z"/>
<path d="M208 2017 c8 -9 22 -19 33 -22 11 -4 26 -19 33 -34 12 -23 25 -29 79
-39 35 -7 93 -12 127 -12 l63 0 -22 24 c-15 16 -39 26 -69 30 -65 9 -182 36
-212 49 -14 6 -29 13 -35 16 -5 2 -4 -3 3 -12z"/>
<path d="M683 1921 c2 -94 4 -105 24 -118 l21 -14 -14 48 c-9 29 -12 64 -8 89
4 29 1 50 -10 70 -15 28 -16 25 -13 -75z"/>
<path d="M3388 2000 c-4 -14 -9 -56 -11 -95 -2 -38 -7 -79 -12 -90 -8 -20 -7
-20 14 1 20 19 22 29 19 115 -2 58 -6 84 -10 69z"/>
<path d="M3244 1915 c10 -22 28 -49 40 -60 13 -11 29 -29 35 -40 11 -18 11
-18 5 5 -7 30 -47 91 -76 117 l-20 18 16 -40z"/>
<path d="M823 1908 c-33 -35 -83 -127 -83 -153 0 -9 4 -25 10 -35 9 -17 12
-17 39 11 22 21 39 29 65 29 44 0 47 20 9 50 -18 14 -37 20 -56 17 l-28 -4 30
31 c24 25 58 86 48 86 -2 0 -17 -15 -34 -32z"/>
<path d="M3610 1902 c-88 -3 -98 -5 -130 -32 l-35 -29 90 -1 c85 0 94 2 150
35 33 19 51 34 40 33 -11 -1 -63 -4 -115 -6z"/>
<path d="M395 1866 c57 -33 65 -35 150 -35 l90 0 -33 30 c-31 28 -37 29 -105
27 -40 -1 -92 1 -117 6 l-45 7 60 -35z"/>
<path d="M3183 1815 c-11 -8 -23 -24 -26 -35 -4 -17 0 -20 32 -20 36 0 72 -22
84 -52 9 -21 27 12 27 49 0 57 -69 92 -117 58z"/>
<path d="M3423 1809 c-33 -10 -54 -29 -31 -29 26 0 190 29 196 34 9 10 -130 5
-165 -5z"/>
<path d="M502 1804 c6 -6 175 -34 198 -33 8 0 -3 9 -25 20 -27 12 -63 19 -109
19 -38 0 -67 -3 -64 -6z"/>
<path d="M610 1720 c-28 -28 -27 -54 3 -46 12 3 43 6 70 6 53 0 63 18 25 44
-31 22 -74 20 -98 -4z"/>
<path d="M833 1730 c-19 -8 -50 -48 -41 -54 2 -1 21 -7 43 -14 38 -11 41 -10
66 18 20 21 24 32 15 39 -18 15 -59 21 -83 11z"/>
<path d="M3141 1723 l-20 -18 24 -28 c22 -24 30 -27 61 -21 47 9 55 31 20 61
-32 28 -56 29 -85 6z"/>
<path d="M3332 1717 c-12 -13 -22 -26 -22 -29 0 -3 27 -9 61 -12 33 -4 67 -10
75 -13 23 -9 16 25 -11 52 -31 32 -74 33 -103 2z"/>
<path d="M940 1677 c-41 -21 -35 -40 22 -69 39 -21 54 -25 60 -15 15 24 8 56
-18 76 -31 24 -31 25 -64 8z"/>
<path d="M3053 1679 c-12 -4 -27 -17 -33 -29 -12 -22 -5 -60 10 -60 8 0 94 37
109 47 8 5 -30 41 -48 46 -9 2 -26 0 -38 -4z"/>
<path d="M630 1639 c-67 -13 -146 -56 -180 -97 -27 -33 -29 -41 -24 -84 l7
-48 -46 0 c-53 0 -197 -26 -209 -38 -4 -4 32 -48 81 -96 l89 -89 -80 -119
c-44 -66 -78 -121 -76 -123 2 -1 28 1 58 6 185 26 395 1 720 -86 185 -50 295
-44 307 16 3 16 6 29 7 29 1 0 39 -13 84 -30 97 -35 237 -64 389 -81 165 -17
485 -7 642 21 105 18 330 74 382 95 11 4 21 -5 34 -34 42 -94 73 -95 345 -17
325 94 520 122 652 94 44 -9 64 -11 59 -4 -5 6 -48 63 -95 126 -84 110 -87
115 -68 130 145 115 192 154 192 161 0 16 -72 31 -179 36 l-113 6 6 57 c7 56
6 58 -26 85 -18 16 -58 40 -88 54 -49 23 -67 26 -160 25 -147 -1 -235 -34
-424 -162 -164 -111 -254 -155 -380 -187 -148 -38 -269 -48 -470 -42 -406 13
-775 114 -1034 285 -100 66 -176 99 -262 113 -63 10 -78 10 -140 -2z m56 -127
c6 -4 23 -29 37 -57 26 -52 33 -50 39 10 3 26 8 30 36 33 30 3 32 2 31 -30 -1
-57 -24 -193 -32 -190 -4 1 -18 2 -32 2 -20 0 -30 11 -54 58 -31 60 -35 59
-43 -18 -3 -21 -7 -25 -33 -22 -16 2 -31 5 -33 7 -3 3 18 184 23 203 5 13 43
16 61 4z m2735 -32 c27 -15 49 -63 49 -109 0 -31 -7 -49 -29 -73 -26 -29 -35
-33 -81 -33 -46 0 -55 4 -81 33 -40 44 -41 116 -3 161 22 27 32 31 76 31 27 0
58 -5 69 -10z m-262 -37 l24 -16 -22 -19 c-17 -13 -28 -15 -40 -8 -13 6 -25 4
-39 -6 -26 -18 -27 -35 -7 -74 20 -39 60 -41 77 -5 8 18 19 25 40 25 40 0 37
-33 -6 -76 -65 -65 -158 -35 -184 60 -13 47 -4 74 38 109 37 31 84 35 119 10z
m-2138 -19 c43 -22 63 -73 49 -126 -22 -81 -87 -110 -165 -73 -67 32 -73 128
-13 193 26 27 84 30 129 6z m1954 -156 l7 -107 -30 -15 -30 -16 -74 76 c-40
41 -74 82 -76 89 -2 9 8 17 24 21 24 6 34 0 77 -45 l50 -52 -7 43 c-4 24 -9
57 -12 74 -5 28 -2 33 23 42 15 5 31 7 34 3 4 -3 10 -54 14 -113z m-1763 0
l14 -63 21 48 c12 26 24 47 27 47 17 0 56 -25 53 -34 -3 -6 -22 -52 -42 -103
l-38 -92 -31 13 c-26 11 -32 20 -42 69 -6 32 -14 60 -17 63 -3 3 -13 -15 -22
-41 -15 -39 -21 -44 -39 -39 -44 13 -43 17 28 187 16 37 17 37 45 22 24 -12
31 -25 43 -77z m1546 -20 c42 -46 56 -132 26 -163 -17 -17 -107 -65 -122 -65
-5 0 -14 10 -19 23 -6 12 -27 57 -47 100 l-36 78 53 23 c68 32 117 33 145 4z
m-1270 -33 c68 -20 96 -56 88 -109 -9 -54 -33 -95 -62 -106 -30 -12 -154 16
-154 34 0 11 10 51 36 144 8 28 20 52 27 52 8 0 36 -7 65 -15z m982 -45 c24
-24 25 -48 3 -80 -14 -19 -14 -25 -3 -28 21 -7 61 -54 57 -66 -2 -6 -17 -14
-33 -17 -24 -5 -35 1 -67 34 -20 22 -39 38 -41 36 -2 -2 -1 -23 3 -46 8 -41 7
-42 -21 -49 -17 -3 -33 -2 -38 2 -13 15 -43 195 -34 204 11 10 87 27 127 29
15 1 36 -8 47 -19z m-806 -9 c4 -5 9 -37 12 -70 4 -34 10 -61 14 -61 3 0 19
27 35 60 20 41 33 59 43 55 7 -3 22 -5 33 -5 17 0 13 -12 -31 -99 -27 -55 -53
-102 -57 -104 -4 -3 -22 -2 -39 0 -31 5 -32 6 -48 96 -10 51 -20 102 -23 115
-4 19 -1 22 25 22 17 0 33 -4 36 -9z m325 -37 c38 -32 39 -50 5 -58 -18 -5
-30 -2 -38 9 -19 26 -58 15 -69 -18 -20 -60 23 -109 63 -72 13 12 28 15 45 11
31 -8 32 -20 0 -51 -17 -18 -35 -25 -64 -25 -80 0 -115 35 -114 114 1 56 17
84 56 101 48 21 82 18 116 -11z m230 11 c58 -29 75 -136 29 -181 -34 -34 -106
-44 -144 -20 -47 32 -68 115 -40 165 27 48 99 65 155 36z"/>
<path d="M3332 1428 c-7 -7 -12 -31 -12 -55 0 -37 3 -43 25 -49 35 -9 55 11
55 55 0 40 -14 61 -40 61 -9 0 -21 -5 -28 -12z"/>
<path d="M947 1378 c-23 -17 -37 -70 -25 -91 13 -24 54 -21 72 5 20 29 20 62
0 82 -19 19 -25 20 -47 4z"/>
<path d="M2647 1203 c-3 -4 7 -32 22 -61 l27 -53 24 19 23 19 -19 39 c-14 29
-26 40 -46 42 -14 2 -28 0 -31 -5z"/>
<path d="M1451 1126 c-16 -65 -14 -76 12 -76 43 0 65 90 28 110 -28 14 -27 15
-40 -34z"/>
<path d="M2364 1125 c-4 -9 -2 -21 4 -27 15 -15 54 1 50 20 -4 23 -46 28 -54
7z"/>
<path d="M2136 1084 c-19 -18 -21 -75 -4 -92 17 -17 53 -15 68 3 17 20 4 82
-20 95 -24 13 -26 13 -44 -6z"/>
<path d="M2720 859 c-14 -6 -61 -21 -105 -34 l-80 -23 39 -16 c21 -9 48 -16
59 -16 22 0 157 38 157 45 0 2 -4 15 -10 29 -10 28 -21 30 -60 15z"/>
<path d="M1286 821 c-17 -18 -15 -20 33 -36 28 -9 63 -15 78 -13 26 3 23 6
-33 35 -60 31 -62 32 -78 14z"/>
<path d="M1439 799 c28 -13 47 -17 53 -11 6 6 -4 12 -27 16 -20 4 -44 9 -53
12 -9 2 3 -5 27 -17z"/>
<path d="M900 801 c0 -5 14 -23 31 -40 25 -25 39 -31 75 -31 40 0 44 2 35 18
-15 28 -31 38 -83 51 -57 13 -58 13 -58 2z"/>
<path d="M3050 788 c-93 -22 -95 -23 -104 -55 -6 -19 -2 -24 26 -31 42 -12 94
15 138 70 17 21 30 38 28 37 -2 0 -41 -10 -88 -21z"/>
<path d="M2443 791 c-21 -6 -20 -9 23 -64 24 -32 44 -65 44 -73 0 -16 31 -34
60 -34 19 0 15 9 -36 83 -69 100 -64 95 -91 88z"/>
<path d="M2510 784 c0 -11 134 -200 147 -208 9 -5 31 -12 49 -16 30 -7 32 -6
24 9 -5 10 -16 24 -25 31 -9 7 -39 46 -66 85 -38 55 -59 76 -89 88 -22 8 -40
14 -40 11z"/>
<path d="M2740 772 c-39 -14 -42 -17 -20 -20 30 -5 100 15 100 28 0 14 -28 11
-80 -8z"/>
<path d="M1210 767 c-25 -11 -25 -11 9 -15 19 -2 46 0 60 3 24 7 25 8 6 15
-27 12 -45 11 -75 -3z"/>
<path d="M1473 690 c-40 -49 -69 -90 -65 -90 4 0 24 5 45 11 27 7 45 21 64 52
15 23 40 59 56 80 l29 37 -29 0 c-24 0 -40 -14 -100 -90z"/>
<path d="M2337 773 c-14 -4 1 -19 60 -63 100 -76 110 -62 26 33 -31 35 -46 40
-86 30z"/>
<path d="M3121 737 c-52 -40 -53 -42 -28 -45 26 -3 75 16 111 43 16 12 17 17
6 30 -19 22 -30 19 -89 -28z"/>
<path d="M1070 762 c0 -21 30 -34 65 -28 42 8 47 26 8 26 -16 0 -38 3 -50 6
-13 4 -23 2 -23 -4z"/>
<path d="M1585 720 c-21 -28 -35 -53 -33 -55 2 -3 21 0 41 6 25 7 37 16 37 28
0 10 9 30 21 45 l20 26 -24 0 c-19 0 -35 -13 -62 -50z"/>
<path d="M860 745 c-11 -13 -7 -15 26 -15 36 1 38 2 20 15 -25 19 -31 19 -46
0z"/>
<path d="M1424 750 c-11 -4 -51 -41 -87 -81 -68 -75 -71 -89 -18 -89 25 0 122
93 154 149 18 31 18 31 -5 30 -13 0 -32 -4 -44 -9z"/>
<path d="M1676 738 c-20 -28 -12 -36 13 -14 10 9 32 21 47 26 29 8 28 8 -8 9
-27 1 -41 -5 -52 -21z"/>
<path d="M2820 748 l-25 -10 30 -14 c35 -15 95 -18 95 -5 0 5 3 16 6 25 5 13
-2 16 -37 15 -24 0 -55 -5 -69 -11z"/>
<path d="M1297 735 c-21 -8 -50 -29 -65 -47 -15 -18 -37 -43 -48 -55 -27 -27
-22 -33 27 -33 32 0 43 6 66 36 15 21 43 54 62 75 38 44 28 49 -42 24z"/>
<path d="M1955 734 c39 -30 52 -34 65 -19 18 22 3 35 -43 35 -40 -1 -41 -1
-22 -16z"/>
<path d="M2041 704 c-73 -61 -149 -100 -157 -80 -4 11 -17 6 -57 -21 -51 -34
-52 -36 -52 -83 0 -26 3 -46 6 -44 3 2 30 19 59 39 28 19 70 38 91 41 27 5 39
12 39 23 0 20 64 75 151 130 l64 41 -45 -1 c-38 0 -53 -7 -99 -45z"/>
<path d="M4978 731 c-74 -24 -119 -53 -167 -108 -157 -178 -96 -482 118 -582
51 -24 67 -26 176 -26 105 0 127 3 173 24 116 52 192 182 192 327 l0 64 -190
0 -190 0 0 -70 0 -70 95 0 c104 0 109 -4 80 -60 -29 -56 -126 -91 -209 -76
-45 9 -91 47 -118 100 -30 58 -30 174 0 233 56 108 189 135 280 58 l40 -35 78
36 c44 20 81 38 82 39 9 8 -48 69 -92 99 -96 65 -233 84 -348 47z"/>
<path d="M5855 741 c-104 -27 -210 -112 -254 -203 -46 -97 -45 -232 4 -328 71
-140 245 -228 397 -201 134 23 227 91 284 206 34 68 37 82 37 157 0 108 -27
178 -94 253 -73 79 -153 116 -261 121 -46 2 -96 0 -113 -5z m153 -166 c81 -34
122 -101 122 -197 0 -79 -25 -136 -76 -174 -33 -26 -46 -29 -109 -29 -62 0
-76 3 -107 27 -50 38 -78 101 -78 171 0 96 39 163 115 198 49 23 84 24 133 4z"/>
<path d="M9465 741 c-106 -28 -207 -107 -250 -195 -112 -229 23 -490 279 -537
154 -28 329 58 400 198 96 190 15 421 -180 510 -60 27 -190 40 -249 24z m153
-166 c80 -34 121 -102 122 -199 0 -110 -63 -193 -154 -203 -132 -15 -216 63
-216 202 0 153 122 252 248 200z"/>
<path d="M2670 681 c61 -86 122 -141 159 -141 16 0 32 4 35 8 3 5 -32 48 -77
96 -69 74 -88 88 -121 93 l-40 6 44 -62z"/>
<path d="M3210 712 c-22 -17 -21 -18 23 -17 43 0 44 1 30 18 -20 21 -25 21
-53 -1z"/>
<path d="M6377 643 c21 -49 87 -207 148 -353 l112 -265 74 0 74 0 130 310 c72
171 139 329 148 353 l17 43 -102 -3 -103 -3 -71 -200 c-40 -110 -75 -217 -79
-238 -8 -43 -20 -41 -29 5 -3 18 -39 124 -79 236 l-72 202 -102 0 -102 0 36
-87z"/>
<path d="M7142 378 l3 -353 218 -3 217 -2 0 80 0 80 -125 0 -125 0 0 60 0 59
118 3 117 3 3 72 3 72 -118 3 -118 3 -3 63 -3 62 126 0 125 0 0 75 0 75 -220
0 -220 0 2 -352z"/>
<path d="M7710 376 l0 -356 90 0 90 0 0 137 c0 95 3 134 10 127 6 -6 43 -67
83 -135 l72 -124 108 -3 c59 -1 107 0 107 3 0 4 -42 68 -94 144 l-94 137 49
23 c68 31 100 80 106 165 5 57 2 72 -21 121 -21 42 -38 61 -74 83 -46 27 -50
27 -239 30 l-193 4 0 -356z m318 179 c28 -33 30 -93 3 -126 -14 -18 -31 -23
-80 -27 l-61 -4 0 97 0 98 58 -6 c45 -5 62 -12 80 -32z"/>
<path d="M8350 375 l0 -355 96 0 96 0 -3 240 -4 239 25 -48 c14 -27 88 -134
165 -240 l139 -191 93 0 93 0 0 355 0 355 -96 0 -97 0 5 -236 5 -237 -26 51
c-14 28 -87 134 -161 236 l-135 185 -97 1 -98 0 0 -355z"/>
<path d="M1149 712 c-18 -8 -89 -69 -89 -76 0 -3 16 -8 36 -12 31 -6 40 -2 71
27 19 19 39 42 44 52 8 14 5 17 -18 16 -15 0 -35 -3 -44 -7z"/>
<path d="M2802 668 c78 -93 96 -108 139 -108 21 0 39 3 39 6 0 3 -27 32 -60
64 -39 38 -77 64 -107 74 -26 9 -48 16 -50 16 -2 0 15 -23 39 -52z"/>
<path d="M899 696 c14 -8 32 -11 40 -8 12 4 11 7 -5 13 -10 4 -28 8 -39 8 -18
0 -17 -1 4 -13z"/>
<path d="M1031 703 c-19 -3 -45 -12 -58 -20 l-24 -16 21 -14 c19 -13 26 -12
68 9 65 32 62 49 -7 41z"/>
<path d="M2930 655 c62 -66 86 -79 121 -65 l30 13 -23 15 c-13 8 -34 25 -48
38 -14 13 -45 26 -70 30 l-45 7 35 -38z"/>
<path d="M2085 660 c-3 -5 10 -24 29 -41 20 -17 36 -37 36 -44 0 -7 15 -17 33
-20 41 -9 97 -38 133 -68 l29 -25 0 52 1 52 -54 33 c-40 25 -56 30 -62 21 -5
-9 -22 -4 -63 19 -60 33 -72 37 -82 21z"/>
<path d="M3051 654 c7 -8 30 -24 51 -35 30 -15 43 -17 58 -9 11 6 20 12 20 15
0 13 -74 45 -105 45 -33 0 -36 -2 -24 -16z"/>
<path d="M3170 660 c8 -5 24 -10 35 -10 11 0 27 5 35 10 11 7 1 10 -35 10 -36
0 -46 -3 -35 -10z"/>
<path d="M1670 512 c-34 -30 -43 -45 -43 -71 0 -30 15 -50 37 -51 4 0 26 17
47 39 33 32 39 45 39 80 0 54 -22 55 -80 3z m40 -16 c0 -16 -38 -66 -51 -66
-15 0 -10 20 12 51 22 31 39 38 39 15z"/>
<path d="M2365 530 c-8 -27 30 -106 61 -126 35 -23 64 -10 64 29 0 40 -19 69
-64 96 -42 26 -53 26 -61 1z m79 -51 c27 -32 33 -49 17 -49 -11 0 -61 58 -61
71 0 18 19 9 44 -22z"/>
</g>
</svg>
