<svg width="36" height="36" viewBox="0 0 36 36" fill="none" xmlns="http://www.w3.org/2000/svg">
<path d="M33.9 36C29.7333 36 25.6167 35.0917 21.55 33.275C17.4833 31.4583 13.7833 28.8833 10.45 25.55C7.11667 22.2167 4.54167 18.5167 2.725 14.45C0.908334 10.3833 0 6.26667 0 2.1C0 1.5 0.2 1 0.6 0.6C1 0.2 1.5 0 2.1 0H10.2C10.6667 0 11.0833 0.158333 11.45 0.475C11.8167 0.791667 12.0333 1.16667 12.1 1.6L13.4 8.6C13.4667 9.13333 13.45 9.58333 13.35 9.95C13.25 10.3167 13.0667 10.6333 12.8 10.9L7.95 15.8C8.61667 17.0333 9.40833 18.225 10.325 19.375C11.2417 20.525 12.25 21.6333 13.35 22.7C14.3833 23.7333 15.4667 24.6917 16.6 25.575C17.7333 26.4583 18.9333 27.2667 20.2 28L24.9 23.3C25.2 23 25.5917 22.775 26.075 22.625C26.5583 22.475 27.0333 22.4333 27.5 22.5L34.4 23.9C34.8667 24.0333 35.25 24.275 35.55 24.625C35.85 24.975 36 25.3667 36 25.8V33.9C36 34.5 35.8 35 35.4 35.4C35 35.8 34.5 36 33.9 36ZM6.05 12L9.35 8.7L8.5 4H4.05C4.21667 5.36667 4.45 6.71667 4.75 8.05C5.05 9.38333 5.48333 10.7 6.05 12ZM23.95 29.9C25.25 30.4667 26.575 30.9167 27.925 31.25C29.275 31.5833 30.6333 31.8 32 31.9V27.5L27.3 26.55L23.95 29.9Z" fill="white"/>
</svg>
