<svg width="85" height="85" viewBox="0 0 85 85" fill="none" xmlns="http://www.w3.org/2000/svg">
<path d="M66.5 18H17.5C14.7152 18 12.0445 19.1062 10.0754 21.0754C8.10625 23.0445 7 25.7152 7 28.5V56.5C7 59.2848 8.10625 61.9555 10.0754 63.9246C12.0445 65.8938 14.7152 67 17.5 67H66.5C69.2848 67 71.9555 65.8938 73.9246 63.9246C75.8938 61.9555 77 59.2848 77 56.5V28.5C77 25.7152 75.8938 23.0445 73.9246 21.0754C71.9555 19.1062 69.2848 18 66.5 18ZM38.5 53H24.5C23.5717 53 22.6815 52.6312 22.0251 51.9749C21.3687 51.3185 21 50.4283 21 49.5C21 48.5717 21.3687 47.6815 22.0251 47.0251C22.6815 46.3687 23.5717 46 24.5 46H38.5C39.4283 46 40.3185 46.3687 40.9749 47.0251C41.6312 47.6815 42 48.5717 42 49.5C42 50.4283 41.6312 51.3185 40.9749 51.9749C40.3185 52.6312 39.4283 53 38.5 53ZM59.5 53H52.5C51.5717 53 50.6815 52.6312 50.0251 51.9749C49.3688 51.3185 49 50.4283 49 49.5C49 48.5717 49.3688 47.6815 50.0251 47.0251C50.6815 46.3687 51.5717 46 52.5 46H59.5C60.4283 46 61.3185 46.3687 61.9749 47.0251C62.6313 47.6815 63 48.5717 63 49.5C63 50.4283 62.6313 51.3185 61.9749 51.9749C61.3185 52.6312 60.4283 53 59.5 53ZM70 32H14V28.5C14 27.5717 14.3687 26.6815 15.0251 26.0251C15.6815 25.3687 16.5717 25 17.5 25H66.5C67.4283 25 68.3185 25.3687 68.9749 26.0251C69.6313 26.6815 70 27.5717 70 28.5V32Z" fill="white"/>
</svg>
