<svg width="65" height="64" viewBox="0 0 65 64" fill="none" xmlns="http://www.w3.org/2000/svg">
<path d="M59.1657 31.9997C59.1657 28.4978 58.4759 25.0302 57.1358 21.7949C55.7957 18.5595 53.8314 15.6198 51.3552 13.1436C48.879 10.6673 45.9392 8.70309 42.7039 7.36296C39.4685 6.02284 36.0009 5.33308 32.499 5.33308C25.4266 5.33308 18.6438 8.1426 13.6428 13.1436C8.64185 18.1445 5.83234 24.9273 5.83234 31.9997C5.83234 39.0722 8.64185 45.855 13.6428 50.8559C18.6438 55.8569 25.4266 58.6664 32.499 58.6664C39.5714 58.6664 46.3542 55.8569 51.3552 50.8559C56.3562 45.855 59.1657 39.0722 59.1657 31.9997ZM53.6457 29.3331H45.8323C45.3925 23.0615 43.2437 17.03 39.619 11.8931C43.3429 13.2157 46.6263 15.5466 49.103 18.626C51.5797 21.7054 53.1524 25.4122 53.6457 29.3331ZM24.7123 34.6664H40.499C39.8166 41.2546 37.0085 47.4418 32.499 52.2931C27.9925 47.4621 25.2488 41.2512 24.7123 34.6664ZM24.7123 29.3331C25.3334 22.778 28.0659 16.6017 32.499 11.7331C37.0449 16.5494 39.8593 22.7412 40.499 29.3331H24.7123ZM25.6723 11.8131C22.0285 16.9785 19.8451 23.031 19.3523 29.3331H11.3523C11.8561 25.3637 13.466 21.6161 15.9981 18.5181C18.5303 15.4201 21.8826 13.0966 25.6723 11.8131ZM11.3523 34.6664H19.3523C19.7915 40.9631 21.96 47.0165 25.619 52.1597C21.8429 50.8699 18.5043 48.5469 15.9824 45.4546C13.4605 42.3623 11.8564 38.6247 11.3523 34.6664ZM39.4857 52.1331C43.1348 46.9882 45.3274 40.9538 45.8323 34.6664H53.699C53.1947 38.6137 51.5964 42.3413 49.0847 45.4279C46.573 48.5145 43.2481 50.837 39.4857 52.1331Z" fill="white"/>
</svg>
