<svg width="65" height="65" viewBox="0 0 65 65" fill="none" xmlns="http://www.w3.org/2000/svg">
<path d="M48.7499 8.125H16.2499C14.095 8.125 12.0284 8.98102 10.5046 10.5048C8.9809 12.0285 8.12488 14.0951 8.12488 16.25V48.75C8.12488 50.9049 8.9809 52.9715 10.5046 54.4952C12.0284 56.019 14.095 56.875 16.2499 56.875H48.7499C50.9048 56.875 52.9714 56.019 54.4951 54.4952C56.0189 52.9715 56.8749 50.9049 56.8749 48.75V16.25C56.8749 14.0951 56.0189 12.0285 54.4951 10.5048C52.9714 8.98102 50.9048 8.125 48.7499 8.125ZM16.2499 13.5417H48.7499C49.4682 13.5417 50.157 13.827 50.665 14.3349C51.1729 14.8428 51.4582 15.5317 51.4582 16.25V38.8917L42.7915 31.4979C41.4487 30.393 39.7638 29.7889 38.0249 29.7889C36.2859 29.7889 34.601 30.393 33.2582 31.4979L13.5415 47.9375V16.25C13.5415 15.5317 13.8269 14.8428 14.3348 14.3349C14.8427 13.827 15.5316 13.5417 16.2499 13.5417Z" fill="white"/>
<path d="M21.6666 27.0834C23.9103 27.0834 25.7291 25.2645 25.7291 23.0209C25.7291 20.7772 23.9103 18.9584 21.6666 18.9584C19.423 18.9584 17.6041 20.7772 17.6041 23.0209C17.6041 25.2645 19.423 27.0834 21.6666 27.0834Z" fill="white"/>
</svg>
