<svg width="37" height="47" viewBox="0 0 37 47" fill="none" xmlns="http://www.w3.org/2000/svg">
<path d="M18.5 23.5C19.7719 23.5 20.8607 23.0398 21.7664 22.1194C22.6721 21.199 23.125 20.0925 23.125 18.8C23.125 17.5075 22.6721 16.401 21.7664 15.4806C20.8607 14.5602 19.7719 14.1 18.5 14.1C17.2281 14.1 16.1393 14.5602 15.2336 15.4806C14.3279 16.401 13.875 17.5075 13.875 18.8C13.875 20.0925 14.3279 21.199 15.2336 22.1194C16.1393 23.0398 17.2281 23.5 18.5 23.5ZM18.5 40.7725C23.2021 36.3858 26.6901 32.4006 28.9641 28.8169C31.238 25.2331 32.375 22.0508 32.375 19.27C32.375 15.0008 31.0357 11.5052 28.357 8.78312C25.6784 6.06104 22.3927 4.7 18.5 4.7C14.6073 4.7 11.3216 6.06104 8.64297 8.78312C5.96432 11.5052 4.625 15.0008 4.625 19.27C4.625 22.0508 5.76198 25.2331 8.03594 28.8169C10.3099 32.4006 13.7979 36.3858 18.5 40.7725ZM18.5 47C12.2948 41.6342 7.66016 36.6502 4.59609 32.0481C1.53203 27.446 0 23.1867 0 19.27C0 13.395 1.85964 8.71458 5.57891 5.22875C9.29818 1.74292 13.6052 0 18.5 0C23.3948 0 27.7018 1.74292 31.4211 5.22875C35.1404 8.71458 37 13.395 37 19.27C37 23.1867 35.468 27.446 32.4039 32.0481C29.3398 36.6502 24.7052 41.6342 18.5 47Z" fill="white"/>
</svg>
