<svg width="180" height="47" viewBox="0 0 180 47" fill="none" xmlns="http://www.w3.org/2000/svg">
<path d="M150 46.4463L155.422 1H174.462L179.787 46.4463H169.168L168.37 39.1129H161.609L160.907 46.4463H150ZM161.609 39.1129H168.37L165.053 8.74654H164.543L161.609 39.1129Z" fill="black"/>
<path d="M13.5223 46.2726C9.46135 46.2726 6.1871 45.2484 3.69949 43.1998C1.23317 41.1514 0 38.2852 0 34.6013V13.6339C0 9.22698 1.07371 5.85293 3.22112 3.51177C5.38978 1.17059 8.90857 0 13.7775 0C16.4351 0 18.7952 0.395935 20.8575 1.1878C22.9412 1.97967 24.5783 3.16747 25.769 4.7512C26.9596 6.31774 27.5549 8.29739 27.5549 10.6902L16.3926 18.54V11.8264C16.3926 10.4664 16.18 9.55406 15.7548 9.08928C15.3295 8.60725 14.6704 8.36625 13.7775 8.36625C12.7357 8.36625 12.034 8.67612 11.6726 9.29585C11.3111 9.89836 11.1304 10.7074 11.1304 11.7231V34.472C11.1304 35.7289 11.3536 36.6152 11.8002 37.1317C12.2679 37.6482 12.927 37.9065 13.7775 37.9065C14.7342 37.9065 15.404 37.588 15.7867 36.951C16.1906 36.3141 16.3926 35.4877 16.3926 34.472V26.2866L27.6825 34.8851C27.6825 38.8789 26.4387 41.7796 23.9511 43.5873C21.4635 45.3774 17.9872 46.2726 13.5223 46.2726ZM44.8404 46.2726C40.3544 46.2726 36.9206 45.1796 34.5393 42.9932C32.1793 40.7898 30.9993 37.6138 30.9993 33.4649V11.878C30.9993 7.98752 32.1687 5.03524 34.5074 3.02116C36.8676 1.00705 40.3119 0 44.8404 0C49.3693 0 52.8031 1.00705 55.1418 3.02116C57.5018 5.03524 58.6818 7.98752 58.6818 11.878V33.4649C58.6818 37.6138 57.4913 40.7898 55.1098 42.9932C52.7498 45.1796 49.3269 46.2726 44.8404 46.2726ZM44.9362 37.9065C46.637 37.9065 47.4875 36.5723 47.4875 33.9041V11.7231C47.4875 9.4852 46.6584 8.36625 45.0001 8.36625C43.1288 8.36625 42.1933 9.51102 42.1933 11.8006V33.9555C42.1933 35.3672 42.406 36.3828 42.8313 37.0028C43.2565 37.605 43.9583 37.9065 44.9362 37.9065ZM63.2104 45.8595V0.413148H78.6462C82.686 0.413148 85.7264 1.32552 87.7675 3.15026C89.8086 4.95777 90.8293 7.60882 90.8293 11.1034V32.3805C90.8293 36.6843 89.8935 40.0065 88.0226 42.3478C86.1727 44.689 82.92 45.8595 78.2638 45.8595H63.2104ZM74.5005 37.8289H76.4458C78.508 37.8289 79.5392 37.0198 79.5392 35.4016V11.9555C79.5392 10.4406 79.2841 9.46798 78.7739 9.03763C78.2848 8.59004 77.2749 8.36625 75.744 8.36625H74.5005V37.8289ZM93.8908 45.8595L99.3124 0.413148H118.352L123.678 45.8595H113.058L112.261 38.5261H105.5L104.798 45.8595H93.8908ZM105.5 38.5261H112.261L108.944 8.15969H108.434L105.5 38.5261ZM131.109 45.8595V9.1409H124.444V0.413148H149.001V9.1409H142.335V45.8595H131.109Z" fill="black"/>
</svg>
